<svg xmlns="http://www.w3.org/2000/svg" viewBox="-2.5 -5.5 15 17" role="img" aria-label="Mono k, current"><rect x="-2.5" y="-5.5" width="15" height="17" fill="#FFFFFF" /><g stroke="#E8E8E8" stroke-width="0.04"><line x1="-2" y1="-5" x2="-2" y2="11" /><line x1="0" y1="-5" x2="0" y2="11" /><line x1="2" y1="-5" x2="2" y2="11" /><line x1="4" y1="-5" x2="4" y2="11" /><line x1="6" y1="-5" x2="6" y2="11" /><line x1="8" y1="-5" x2="8" y2="11" /><line x1="10" y1="-5" x2="10" y2="11" /><line x1="12" y1="-5" x2="12" y2="11" /><line x1="-2.5" y1="-4" x2="12.5" y2="-4" /><line x1="-2.5" y1="-2" x2="12.5" y2="-2" /><line x1="-2.5" y1="0" x2="12.5" y2="0" /><line x1="-2.5" y1="2" x2="12.5" y2="2" /><line x1="-2.5" y1="4" x2="12.5" y2="4" /><line x1="-2.5" y1="6" x2="12.5" y2="6" /><line x1="-2.5" y1="8" x2="12.5" y2="8" /><line x1="-2.5" y1="10" x2="12.5" y2="10" /></g><g stroke="#9A9A9A" stroke-width="0.05"><line x1="-2.5" y1="-4" x2="12.5" y2="-4" /><line x1="-2.5" y1="10" x2="12.5" y2="10" /></g><path d="M0.494 -4.000 L0.482 -4.000 L0.469 -3.999 L0.457 -3.998 L0.445 -3.997 L0.433 -3.995 L0.421 -3.994 L0.409 -3.992 L0.396 -3.989 L0.385 -3.986 L0.373 -3.983 L0.361 -3.980 L0.349 -3.977 L0.337 -3.973 L0.326 -3.969 L0.314 -3.964 L0.303 -3.960 L0.292 -3.955 L0.281 -3.949 L0.270 -3.944 L0.259 -3.938 L0.248 -3.932 L0.238 -3.926 L0.227 -3.919 L0.217 -3.912 L0.207 -3.905 L0.197 -3.898 L0.188 -3.890 L0.178 -3.883 L0.169 -3.875 L0.160 -3.866 L0.151 -3.858 L0.142 -3.849 L0.134 -3.840 L0.125 -3.831 L0.117 -3.822 L0.110 -3.812 L0.102 -3.803 L0.095 -3.793 L0.088 -3.783 L0.081 -3.773 L0.074 -3.762 L0.068 -3.752 L0.062 -3.741 L0.056 -3.730 L0.051 -3.719 L0.045 -3.708 L0.040 -3.697 L0.036 -3.686 L0.031 -3.674 L0.027 -3.663 L0.023 -3.651 L0.020 -3.639 L0.017 -3.627 L0.014 -3.615 L0.011 -3.604 L0.008 -3.591 L0.006 -3.579 L0.005 -3.567 L0.003 -3.555 L0.002 -3.543 L0.001 -3.531 L0.000 -3.518 L0.000 -3.506 L0.000 -3.503 L0.000 -3.497 L0.000 9.497 L0.000 9.503 L0.000 9.506 L0.000 9.518 L0.001 9.531 L0.002 9.543 L0.003 9.555 L0.005 9.567 L0.006 9.579 L0.008 9.591 L0.011 9.604 L0.014 9.615 L0.017 9.627 L0.020 9.639 L0.023 9.651 L0.027 9.663 L0.031 9.674 L0.036 9.686 L0.040 9.697 L0.045 9.708 L0.051 9.719 L0.056 9.730 L0.062 9.741 L0.068 9.752 L0.074 9.762 L0.081 9.773 L0.088 9.783 L0.095 9.793 L0.102 9.803 L0.110 9.812 L0.117 9.822 L0.125 9.831 L0.134 9.840 L0.142 9.849 L0.151 9.858 L0.160 9.866 L0.169 9.875 L0.178 9.883 L0.188 9.890 L0.197 9.898 L0.207 9.905 L0.217 9.912 L0.227 9.919 L0.238 9.926 L0.248 9.932 L0.259 9.938 L0.270 9.944 L0.281 9.949 L0.292 9.955 L0.303 9.960 L0.314 9.964 L0.326 9.969 L0.337 9.973 L0.349 9.977 L0.361 9.980 L0.373 9.983 L0.385 9.986 L0.396 9.989 L0.409 9.992 L0.421 9.994 L0.433 9.995 L0.445 9.997 L0.457 9.998 L0.469 9.999 L0.482 10.000 L0.494 10.000 L0.497 10.000 L0.503 10.000 L1.497 10.000 L1.503 10.000 L1.506 10.000 L1.518 10.000 L1.531 9.999 L1.543 9.998 L1.555 9.997 L1.567 9.995 L1.579 9.994 L1.591 9.992 L1.604 9.989 L1.615 9.986 L1.627 9.983 L1.639 9.980 L1.651 9.977 L1.663 9.973 L1.674 9.969 L1.686 9.964 L1.697 9.960 L1.708 9.955 L1.719 9.949 L1.730 9.944 L1.741 9.938 L1.752 9.932 L1.762 9.926 L1.773 9.919 L1.783 9.912 L1.793 9.905 L1.803 9.898 L1.812 9.890 L1.822 9.883 L1.831 9.875 L1.840 9.866 L1.849 9.858 L1.858 9.849 L1.866 9.840 L1.875 9.831 L1.883 9.822 L1.890 9.812 L1.898 9.803 L1.905 9.793 L1.912 9.783 L1.919 9.773 L1.926 9.762 L1.932 9.752 L1.938 9.741 L1.944 9.730 L1.949 9.719 L1.955 9.708 L1.960 9.697 L1.964 9.686 L1.969 9.674 L1.973 9.663 L1.977 9.651 L1.980 9.639 L1.983 9.627 L1.986 9.615 L1.989 9.604 L1.992 9.591 L1.994 9.579 L1.995 9.567 L1.997 9.555 L1.998 9.543 L1.999 9.531 L2.000 9.518 L2.000 9.506 L2.000 9.503 L2.000 9.497 L2.000 8.166 L2.000 8.163 L2.008 8.155 L2.017 8.146 L2.025 8.137 L2.033 8.128 L2.040 8.118 L2.048 8.109 L2.055 8.099 L2.062 8.089 L2.069 8.079 L2.075 8.069 L2.081 8.058 L2.087 8.048 L2.093 8.037 L2.098 8.026 L2.103 8.016 L2.106 8.011 L2.114 7.995 L2.117 7.990 L2.126 7.974 L2.129 7.969 L2.138 7.953 L2.141 7.948 L2.150 7.933 L2.153 7.927 L2.163 7.912 L2.166 7.907 L2.177 7.893 L2.180 7.888 L2.191 7.873 L2.194 7.868 L2.205 7.854 L2.209 7.849 L2.220 7.835 L2.224 7.830 L2.235 7.817 L2.239 7.812 L2.251 7.799 L2.255 7.794 L2.267 7.781 L2.272 7.776 L2.284 7.764 L2.289 7.759 L2.301 7.747 L2.306 7.743 L2.319 7.730 L2.323 7.726 L2.337 7.714 L2.341 7.710 L2.355 7.699 L2.360 7.695 L2.374 7.684 L2.379 7.680 L2.393 7.669 L2.398 7.665 L2.412 7.655 L2.417 7.651 L2.432 7.641 L2.437 7.638 L2.452 7.628 L2.457 7.625 L2.472 7.615 L2.478 7.612 L2.493 7.603 L2.498 7.600 L2.514 7.592 L2.520 7.589 L2.535 7.580 L2.541 7.578 L2.557 7.570 L2.562 7.567 L2.579 7.560 L2.584 7.557 L2.601 7.550 L2.606 7.548 L2.623 7.541 L2.629 7.539 L2.645 7.533 L2.651 7.531 L2.668 7.525 L2.674 7.523 L2.691 7.517 L2.697 7.516 L2.714 7.511 L2.720 7.509 L2.737 7.504 L2.743 7.503 L2.761 7.499 L2.767 7.497 L2.784 7.494 L2.790 7.492 L2.808 7.489 L2.814 7.488 L2.831 7.485 L2.837 7.484 L2.855 7.482 L2.861 7.481 L2.879 7.479 L2.885 7.478 L2.903 7.477 L2.909 7.476 L2.927 7.475 L2.933 7.475 L2.951 7.474 L2.957 7.474 L2.975 7.474 L2.981 7.474 L2.999 7.474 L3.005 7.474 L3.023 7.475 L3.029 7.475 L3.041 7.476 L3.053 7.476 L3.066 7.477 L3.078 7.476 L3.091 7.476 L3.103 7.475 L3.116 7.475 L3.128 7.473 L3.141 7.472 L3.153 7.470 L3.165 7.468 L3.178 7.465 L3.190 7.462 L3.200 7.460 L3.201 7.459 L3.203 7.461 L3.214 7.467 L3.219 7.471 L3.225 7.474 L3.230 7.477 L3.258 7.494 L3.264 7.497 L3.270 7.500 L3.275 7.503 L3.304 7.519 L3.309 7.522 L3.315 7.525 L3.321 7.528 L3.348 7.542 L3.351 7.543 L3.354 7.545 L3.357 7.546 L8.046 9.891 L8.050 9.893 L8.064 9.900 L8.070 9.903 L8.075 9.905 L8.081 9.908 L8.086 9.910 L8.092 9.913 L8.098 9.915 L8.103 9.918 L8.109 9.920 L8.115 9.923 L8.120 9.925 L8.126 9.927 L8.132 9.930 L8.137 9.932 L8.143 9.934 L8.149 9.936 L8.154 9.938 L8.160 9.940 L8.166 9.943 L8.172 9.945 L8.178 9.947 L8.183 9.948 L8.189 9.950 L8.195 9.952 L8.201 9.954 L8.207 9.956 L8.213 9.958 L8.219 9.960 L8.224 9.961 L8.230 9.963 L8.236 9.965 L8.242 9.966 L8.248 9.968 L8.254 9.969 L8.260 9.971 L8.266 9.972 L8.272 9.974 L8.278 9.975 L8.284 9.976 L8.290 9.978 L8.296 9.979 L8.302 9.980 L8.308 9.981 L8.314 9.982 L8.320 9.984 L8.326 9.985 L8.332 9.986 L8.338 9.987 L8.344 9.988 L8.350 9.989 L8.356 9.990 L8.362 9.990 L8.368 9.991 L8.375 9.992 L8.381 9.993 L8.387 9.993 L8.393 9.994 L8.399 9.995 L8.405 9.995 L8.411 9.996 L8.417 9.997 L8.423 9.997 L8.430 9.997 L8.436 9.998 L8.442 9.998 L8.448 9.999 L8.454 9.999 L8.460 9.999 L8.466 9.999 L8.472 10.000 L8.479 10.000 L8.485 10.000 L8.491 10.000 L8.497 10.000 L8.503 10.000 L8.509 10.000 L8.515 10.000 L8.521 10.000 L8.528 10.000 L8.534 9.999 L8.540 9.999 L8.546 9.999 L8.552 9.999 L8.558 9.998 L8.564 9.998 L8.570 9.997 L8.577 9.997 L8.583 9.997 L8.589 9.996 L8.595 9.995 L8.601 9.995 L8.607 9.994 L8.613 9.993 L8.619 9.993 L8.625 9.992 L8.632 9.991 L8.638 9.990 L8.644 9.990 L8.650 9.989 L8.656 9.988 L8.662 9.987 L8.668 9.986 L8.674 9.985 L8.680 9.984 L8.686 9.982 L8.692 9.981 L8.698 9.980 L8.704 9.979 L8.710 9.978 L8.716 9.976 L8.722 9.975 L8.728 9.974 L8.734 9.972 L8.740 9.971 L8.746 9.969 L8.752 9.968 L8.758 9.966 L8.764 9.965 L8.770 9.963 L8.776 9.961 L8.781 9.960 L8.787 9.958 L8.793 9.956 L8.799 9.954 L8.805 9.952 L8.811 9.950 L8.817 9.948 L8.822 9.947 L8.828 9.945 L8.834 9.943 L8.840 9.940 L8.846 9.938 L8.851 9.936 L8.857 9.934 L8.863 9.932 L8.868 9.930 L8.874 9.927 L8.880 9.925 L8.885 9.923 L8.891 9.920 L8.897 9.918 L8.902 9.915 L8.908 9.913 L8.914 9.910 L8.919 9.908 L8.925 9.905 L8.930 9.903 L8.936 9.900 L8.941 9.897 L8.947 9.895 L8.952 9.892 L8.958 9.889 L8.963 9.886 L8.969 9.883 L8.974 9.880 L8.979 9.877 L8.985 9.875 L8.990 9.872 L8.996 9.869 L9.001 9.865 L9.006 9.862 L9.011 9.859 L9.017 9.856 L9.022 9.853 L9.027 9.850 L9.032 9.846 L9.038 9.843 L9.043 9.840 L9.048 9.836 L9.053 9.833 L9.058 9.830 L9.063 9.826 L9.068 9.823 L9.073 9.819 L9.078 9.816 L9.083 9.812 L9.088 9.809 L9.093 9.805 L9.098 9.801 L9.103 9.798 L9.108 9.794 L9.113 9.790 L9.118 9.786 L9.122 9.783 L9.127 9.779 L9.132 9.775 L9.137 9.771 L9.141 9.767 L9.146 9.763 L9.151 9.759 L9.155 9.755 L9.160 9.751 L9.165 9.747 L9.169 9.743 L9.174 9.739 L9.178 9.735 L9.183 9.731 L9.187 9.726 L9.192 9.722 L9.196 9.718 L9.201 9.714 L9.205 9.709 L9.209 9.705 L9.214 9.701 L9.218 9.696 L9.222 9.692 L9.226 9.687 L9.231 9.683 L9.235 9.678 L9.239 9.674 L9.243 9.669 L9.247 9.665 L9.251 9.660 L9.255 9.655 L9.259 9.651 L9.263 9.646 L9.267 9.641 L9.271 9.637 L9.275 9.632 L9.279 9.627 L9.283 9.622 L9.286 9.618 L9.290 9.613 L9.294 9.608 L9.298 9.603 L9.301 9.598 L9.305 9.593 L9.309 9.588 L9.312 9.583 L9.316 9.578 L9.319 9.573 L9.323 9.568 L9.326 9.563 L9.330 9.558 L9.333 9.553 L9.336 9.548 L9.340 9.543 L9.343 9.538 L9.346 9.532 L9.350 9.527 L9.353 9.522 L9.356 9.517 L9.359 9.511 L9.362 9.506 L9.365 9.501 L9.369 9.496 L9.372 9.490 L9.375 9.485 L9.377 9.479 L9.380 9.474 L9.383 9.469 L9.386 9.463 L9.389 9.458 L9.392 9.452 L9.395 9.447 L9.397 9.441 L9.400 9.436 L9.403 9.430 L9.405 9.425 L9.408 9.419 L9.410 9.414 L9.413 9.408 L9.415 9.402 L9.418 9.397 L9.420 9.391 L9.423 9.385 L9.425 9.380 L9.427 9.374 L9.430 9.368 L9.432 9.363 L9.434 9.357 L9.436 9.351 L9.438 9.346 L9.440 9.340 L9.443 9.334 L9.445 9.328 L9.447 9.322 L9.448 9.317 L9.450 9.311 L9.452 9.305 L9.454 9.299 L9.456 9.293 L9.458 9.287 L9.460 9.281 L9.461 9.276 L9.463 9.270 L9.465 9.264 L9.466 9.258 L9.468 9.252 L9.469 9.246 L9.471 9.240 L9.472 9.234 L9.474 9.228 L9.475 9.222 L9.476 9.216 L9.478 9.210 L9.479 9.204 L9.480 9.198 L9.481 9.192 L9.482 9.186 L9.484 9.180 L9.485 9.174 L9.486 9.168 L9.487 9.162 L9.488 9.156 L9.489 9.150 L9.490 9.144 L9.490 9.138 L9.491 9.132 L9.492 9.125 L9.493 9.119 L9.493 9.113 L9.494 9.107 L9.495 9.101 L9.495 9.095 L9.496 9.089 L9.497 9.083 L9.497 9.077 L9.497 9.070 L9.498 9.064 L9.498 9.058 L9.499 9.052 L9.499 9.046 L9.499 9.040 L9.499 9.034 L9.500 9.028 L9.500 9.021 L9.500 9.015 L9.500 9.009 L9.500 9.003 L9.500 8.997 L9.500 8.991 L9.500 8.985 L9.500 8.979 L9.500 8.972 L9.499 8.966 L9.499 8.960 L9.499 8.954 L9.499 8.948 L9.498 8.942 L9.498 8.936 L9.497 8.930 L9.497 8.923 L9.497 8.917 L9.496 8.911 L9.495 8.905 L9.495 8.899 L9.494 8.893 L9.493 8.887 L9.493 8.881 L9.492 8.875 L9.491 8.868 L9.490 8.862 L9.490 8.856 L9.489 8.850 L9.488 8.844 L9.487 8.838 L9.486 8.832 L9.485 8.826 L9.484 8.820 L9.482 8.814 L9.481 8.808 L9.480 8.802 L9.479 8.796 L9.478 8.790 L9.476 8.784 L9.475 8.778 L9.474 8.772 L9.472 8.766 L9.471 8.760 L9.469 8.754 L9.468 8.748 L9.466 8.742 L9.465 8.736 L9.463 8.730 L9.461 8.724 L9.460 8.719 L9.458 8.713 L9.456 8.707 L9.454 8.701 L9.452 8.695 L9.450 8.689 L9.448 8.683 L9.447 8.678 L9.445 8.672 L9.443 8.666 L9.440 8.660 L9.438 8.654 L9.436 8.649 L9.434 8.643 L9.432 8.637 L9.430 8.632 L9.427 8.626 L9.425 8.620 L9.423 8.615 L9.420 8.609 L9.418 8.603 L9.415 8.598 L9.413 8.592 L9.410 8.586 L9.408 8.581 L9.405 8.575 L9.403 8.570 L9.400 8.564 L9.397 8.559 L9.395 8.553 L9.392 8.548 L9.389 8.542 L9.386 8.537 L9.383 8.531 L9.380 8.526 L9.377 8.521 L9.375 8.515 L9.372 8.510 L9.369 8.504 L9.365 8.499 L9.362 8.494 L9.359 8.489 L9.356 8.483 L9.353 8.478 L9.350 8.473 L9.346 8.468 L9.343 8.462 L9.340 8.457 L9.336 8.452 L9.333 8.447 L9.330 8.442 L9.326 8.437 L9.323 8.432 L9.319 8.427 L9.316 8.422 L9.312 8.417 L9.309 8.412 L9.305 8.407 L9.301 8.402 L9.298 8.397 L9.294 8.392 L9.290 8.387 L9.286 8.382 L9.283 8.378 L9.279 8.373 L9.275 8.368 L9.271 8.363 L9.267 8.359 L9.263 8.354 L9.259 8.349 L9.255 8.345 L9.251 8.340 L9.247 8.335 L9.243 8.331 L9.239 8.326 L9.235 8.322 L9.231 8.317 L9.226 8.313 L9.222 8.308 L9.218 8.304 L9.214 8.299 L9.209 8.295 L9.205 8.291 L9.201 8.286 L9.196 8.282 L9.192 8.278 L9.187 8.274 L9.183 8.269 L9.178 8.265 L9.174 8.261 L9.169 8.257 L9.165 8.253 L9.160 8.249 L9.155 8.245 L9.151 8.241 L9.146 8.237 L9.141 8.233 L9.137 8.229 L9.132 8.225 L9.127 8.221 L9.122 8.217 L9.118 8.214 L9.113 8.210 L9.108 8.206 L9.103 8.202 L9.098 8.199 L9.093 8.195 L9.088 8.191 L9.083 8.188 L9.078 8.184 L9.073 8.181 L9.068 8.177 L9.063 8.174 L9.058 8.170 L9.053 8.167 L9.048 8.164 L9.043 8.160 L9.038 8.157 L9.032 8.154 L9.027 8.150 L9.022 8.147 L9.017 8.144 L9.011 8.141 L9.006 8.138 L9.001 8.135 L8.996 8.131 L8.990 8.128 L8.985 8.125 L8.979 8.123 L8.974 8.120 L8.969 8.117 L8.963 8.114 L8.956 8.110 L8.953 8.108 L8.949 8.107 L8.946 8.105 L4.907 6.085 L4.904 6.084 L4.897 6.080 L4.892 6.077 L4.886 6.075 L4.881 6.072 L4.876 6.068 L4.870 6.065 L4.865 6.062 L4.860 6.059 L4.855 6.055 L4.850 6.052 L4.845 6.049 L4.840 6.045 L4.835 6.042 L4.830 6.038 L4.825 6.034 L4.820 6.030 L4.815 6.027 L4.810 6.023 L4.806 6.019 L4.801 6.015 L4.796 6.011 L4.792 6.007 L4.787 6.002 L4.783 5.998 L4.778 5.994 L4.774 5.990 L4.770 5.985 L4.765 5.981 L4.761 5.976 L4.757 5.972 L4.753 5.967 L4.749 5.963 L4.745 5.958 L4.741 5.953 L4.737 5.948 L4.734 5.944 L4.730 5.939 L4.726 5.934 L4.723 5.929 L4.719 5.924 L4.716 5.919 L4.712 5.914 L4.709 5.908 L4.705 5.903 L4.702 5.898 L4.699 5.893 L4.696 5.887 L4.693 5.882 L4.690 5.877 L4.687 5.871 L4.684 5.866 L4.681 5.860 L4.679 5.855 L4.676 5.849 L4.673 5.844 L4.671 5.838 L4.669 5.833 L4.666 5.827 L4.664 5.821 L4.662 5.815 L4.660 5.810 L4.657 5.804 L4.655 5.798 L4.653 5.792 L4.652 5.786 L4.650 5.781 L4.648 5.775 L4.646 5.769 L4.645 5.763 L4.643 5.757 L4.642 5.751 L4.641 5.745 L4.639 5.739 L4.638 5.733 L4.637 5.727 L4.636 5.721 L4.635 5.715 L4.634 5.709 L4.633 5.703 L4.632 5.697 L4.632 5.690 L4.631 5.684 L4.631 5.678 L4.630 5.672 L4.630 5.666 L4.629 5.660 L4.629 5.654 L4.629 5.648 L4.629 5.641 L4.629 5.635 L4.629 5.629 L4.629 5.623 L4.629 5.617 L4.630 5.611 L4.630 5.605 L4.630 5.599 L4.631 5.592 L4.631 5.586 L4.632 5.580 L4.633 5.574 L4.634 5.568 L4.635 5.562 L4.636 5.556 L4.637 5.550 L4.638 5.544 L4.639 5.538 L4.640 5.532 L4.641 5.526 L4.643 5.520 L4.644 5.514 L4.646 5.508 L4.648 5.502 L4.649 5.496 L4.651 5.490 L4.653 5.484 L4.655 5.478 L4.657 5.473 L4.659 5.467 L4.661 5.461 L4.663 5.455 L4.665 5.450 L4.668 5.444 L4.670 5.438 L4.673 5.433 L4.675 5.427 L4.678 5.422 L4.681 5.416 L4.683 5.411 L4.686 5.405 L4.689 5.400 L4.692 5.394 L4.695 5.389 L4.698 5.384 L4.701 5.378 L4.704 5.373 L4.708 5.368 L4.711 5.363 L4.714 5.358 L4.718 5.353 L4.721 5.348 L4.725 5.343 L4.729 5.338 L4.732 5.333 L4.736 5.328 L4.740 5.323 L4.744 5.318 L4.748 5.314 L4.752 5.309 L4.756 5.304 L4.760 5.300 L4.764 5.295 L4.768 5.291 L4.773 5.287 L4.777 5.282 L4.781 5.278 L4.786 5.274 L4.791 5.268 L4.794 5.266 L8.668 1.744 L8.669 1.743 L8.672 1.740 L8.675 1.738 L8.683 1.731 L8.687 1.726 L8.692 1.722 L8.696 1.718 L8.701 1.714 L8.705 1.709 L8.709 1.705 L8.714 1.701 L8.718 1.696 L8.722 1.692 L8.726 1.687 L8.731 1.683 L8.735 1.678 L8.739 1.674 L8.743 1.669 L8.747 1.665 L8.751 1.660 L8.755 1.655 L8.759 1.651 L8.763 1.646 L8.767 1.641 L8.771 1.637 L8.775 1.632 L8.779 1.627 L8.783 1.622 L8.786 1.618 L8.790 1.613 L8.794 1.608 L8.798 1.603 L8.801 1.598 L8.805 1.593 L8.809 1.588 L8.812 1.583 L8.816 1.578 L8.819 1.573 L8.823 1.568 L8.826 1.563 L8.830 1.558 L8.833 1.553 L8.836 1.548 L8.840 1.543 L8.843 1.538 L8.846 1.532 L8.850 1.527 L8.853 1.522 L8.856 1.517 L8.859 1.511 L8.862 1.506 L8.865 1.501 L8.869 1.496 L8.872 1.490 L8.875 1.485 L8.877 1.479 L8.880 1.474 L8.883 1.469 L8.886 1.463 L8.889 1.458 L8.892 1.452 L8.895 1.447 L8.897 1.441 L8.900 1.436 L8.903 1.430 L8.905 1.425 L8.908 1.419 L8.910 1.414 L8.913 1.408 L8.915 1.402 L8.918 1.397 L8.920 1.391 L8.923 1.385 L8.925 1.380 L8.927 1.374 L8.930 1.368 L8.932 1.363 L8.934 1.357 L8.936 1.351 L8.938 1.346 L8.940 1.340 L8.943 1.334 L8.945 1.328 L8.947 1.322 L8.948 1.317 L8.950 1.311 L8.952 1.305 L8.954 1.299 L8.956 1.293 L8.958 1.287 L8.960 1.281 L8.961 1.276 L8.963 1.270 L8.965 1.264 L8.966 1.258 L8.968 1.252 L8.969 1.246 L8.971 1.240 L8.972 1.234 L8.974 1.228 L8.975 1.222 L8.976 1.216 L8.978 1.210 L8.979 1.204 L8.980 1.198 L8.981 1.192 L8.982 1.186 L8.984 1.180 L8.985 1.174 L8.986 1.168 L8.987 1.162 L8.988 1.156 L8.989 1.150 L8.990 1.144 L8.990 1.138 L8.991 1.132 L8.992 1.125 L8.993 1.119 L8.993 1.113 L8.994 1.107 L8.995 1.101 L8.995 1.095 L8.996 1.089 L8.997 1.083 L8.997 1.077 L8.997 1.070 L8.998 1.064 L8.998 1.058 L8.999 1.052 L8.999 1.046 L8.999 1.040 L8.999 1.034 L9.000 1.028 L9.000 1.021 L9.000 1.015 L9.000 1.009 L9.000 1.003 L9.000 0.997 L9.000 0.991 L9.000 0.985 L9.000 0.979 L9.000 0.972 L8.999 0.966 L8.999 0.960 L8.999 0.954 L8.999 0.948 L8.998 0.942 L8.998 0.936 L8.997 0.930 L8.997 0.923 L8.997 0.917 L8.996 0.911 L8.995 0.905 L8.995 0.899 L8.994 0.893 L8.993 0.887 L8.993 0.881 L8.992 0.875 L8.991 0.868 L8.990 0.862 L8.990 0.856 L8.989 0.850 L8.988 0.844 L8.987 0.838 L8.986 0.832 L8.985 0.826 L8.984 0.820 L8.982 0.814 L8.981 0.808 L8.980 0.802 L8.979 0.796 L8.978 0.790 L8.976 0.784 L8.975 0.778 L8.974 0.772 L8.972 0.766 L8.971 0.760 L8.969 0.754 L8.968 0.748 L8.966 0.742 L8.965 0.736 L8.963 0.730 L8.961 0.724 L8.960 0.719 L8.958 0.713 L8.956 0.707 L8.954 0.701 L8.952 0.695 L8.950 0.689 L8.948 0.683 L8.947 0.678 L8.945 0.672 L8.943 0.666 L8.940 0.660 L8.938 0.654 L8.936 0.649 L8.934 0.643 L8.932 0.637 L8.930 0.632 L8.927 0.626 L8.925 0.620 L8.923 0.615 L8.920 0.609 L8.918 0.603 L8.915 0.598 L8.913 0.592 L8.910 0.586 L8.908 0.581 L8.905 0.575 L8.903 0.570 L8.900 0.564 L8.897 0.559 L8.895 0.553 L8.892 0.548 L8.889 0.542 L8.886 0.537 L8.883 0.531 L8.880 0.526 L8.877 0.521 L8.875 0.515 L8.872 0.510 L8.869 0.504 L8.865 0.499 L8.862 0.494 L8.859 0.489 L8.856 0.483 L8.853 0.478 L8.850 0.473 L8.846 0.468 L8.843 0.462 L8.840 0.457 L8.836 0.452 L8.833 0.447 L8.830 0.442 L8.826 0.437 L8.823 0.432 L8.819 0.427 L8.816 0.422 L8.812 0.417 L8.809 0.412 L8.805 0.407 L8.801 0.402 L8.798 0.397 L8.794 0.392 L8.790 0.387 L8.786 0.382 L8.783 0.378 L8.779 0.373 L8.775 0.368 L8.771 0.363 L8.767 0.359 L8.763 0.354 L8.759 0.349 L8.755 0.345 L8.751 0.340 L8.747 0.335 L8.743 0.331 L8.739 0.326 L8.735 0.322 L8.731 0.317 L8.726 0.313 L8.722 0.308 L8.718 0.304 L8.714 0.299 L8.709 0.295 L8.705 0.291 L8.701 0.286 L8.696 0.282 L8.692 0.278 L8.687 0.274 L8.683 0.269 L8.678 0.265 L8.674 0.261 L8.669 0.257 L8.665 0.253 L8.660 0.249 L8.655 0.245 L8.651 0.241 L8.646 0.237 L8.641 0.233 L8.637 0.229 L8.632 0.225 L8.627 0.221 L8.622 0.217 L8.618 0.214 L8.613 0.210 L8.608 0.206 L8.603 0.202 L8.598 0.199 L8.593 0.195 L8.588 0.191 L8.583 0.188 L8.578 0.184 L8.573 0.181 L8.568 0.177 L8.563 0.174 L8.558 0.170 L8.553 0.167 L8.548 0.164 L8.543 0.160 L8.538 0.157 L8.532 0.154 L8.527 0.150 L8.522 0.147 L8.517 0.144 L8.511 0.141 L8.506 0.138 L8.501 0.135 L8.496 0.131 L8.490 0.128 L8.485 0.125 L8.479 0.123 L8.474 0.120 L8.469 0.117 L8.463 0.114 L8.458 0.111 L8.452 0.108 L8.447 0.105 L8.441 0.103 L8.436 0.100 L8.430 0.097 L8.425 0.095 L8.419 0.092 L8.414 0.090 L8.408 0.087 L8.402 0.085 L8.397 0.082 L8.391 0.080 L8.385 0.077 L8.380 0.075 L8.374 0.073 L8.368 0.070 L8.363 0.068 L8.357 0.066 L8.351 0.064 L8.346 0.062 L8.340 0.060 L8.334 0.057 L8.328 0.055 L8.322 0.053 L8.317 0.052 L8.311 0.050 L8.305 0.048 L8.299 0.046 L8.293 0.044 L8.287 0.042 L8.281 0.040 L8.276 0.039 L8.270 0.037 L8.264 0.035 L8.258 0.034 L8.252 0.032 L8.246 0.031 L8.240 0.029 L8.234 0.028 L8.228 0.026 L8.222 0.025 L8.216 0.024 L8.210 0.022 L8.204 0.021 L8.198 0.020 L8.192 0.019 L8.186 0.018 L8.180 0.016 L8.174 0.015 L8.168 0.014 L8.162 0.013 L8.156 0.012 L8.150 0.011 L8.144 0.010 L8.138 0.010 L8.132 0.009 L8.125 0.008 L8.119 0.007 L8.113 0.007 L8.107 0.006 L8.101 0.005 L8.095 0.005 L8.089 0.004 L8.083 0.003 L8.077 0.003 L8.070 0.003 L8.064 0.002 L8.058 0.002 L8.052 0.001 L8.046 0.001 L8.040 0.001 L8.034 0.001 L8.028 0.000 L8.021 0.000 L8.015 0.000 L8.009 0.000 L8.003 0.000 L7.997 0.000 L7.991 0.000 L7.985 0.000 L7.979 0.000 L7.972 0.000 L7.966 0.001 L7.960 0.001 L7.954 0.001 L7.948 0.001 L7.942 0.002 L7.936 0.002 L7.930 0.003 L7.923 0.003 L7.917 0.003 L7.911 0.004 L7.905 0.005 L7.899 0.005 L7.893 0.006 L7.887 0.007 L7.881 0.007 L7.875 0.008 L7.868 0.009 L7.862 0.010 L7.856 0.010 L7.850 0.011 L7.844 0.012 L7.838 0.013 L7.832 0.014 L7.826 0.015 L7.820 0.016 L7.814 0.018 L7.808 0.019 L7.802 0.020 L7.796 0.021 L7.790 0.022 L7.784 0.024 L7.778 0.025 L7.772 0.026 L7.766 0.028 L7.760 0.029 L7.754 0.031 L7.748 0.032 L7.742 0.034 L7.736 0.035 L7.730 0.037 L7.724 0.039 L7.719 0.040 L7.713 0.042 L7.707 0.044 L7.701 0.046 L7.695 0.048 L7.689 0.050 L7.683 0.052 L7.678 0.053 L7.672 0.055 L7.666 0.057 L7.660 0.060 L7.654 0.062 L7.649 0.064 L7.643 0.066 L7.637 0.068 L7.632 0.070 L7.626 0.073 L7.620 0.075 L7.615 0.077 L7.609 0.080 L7.603 0.082 L7.598 0.085 L7.592 0.087 L7.586 0.090 L7.581 0.092 L7.575 0.095 L7.570 0.097 L7.564 0.100 L7.559 0.103 L7.553 0.105 L7.548 0.108 L7.542 0.111 L7.537 0.114 L7.531 0.117 L7.526 0.120 L7.521 0.123 L7.515 0.125 L7.510 0.128 L7.504 0.131 L7.499 0.135 L7.494 0.138 L7.489 0.141 L7.483 0.144 L7.478 0.147 L7.473 0.150 L7.468 0.154 L7.462 0.157 L7.457 0.160 L7.452 0.164 L7.447 0.167 L7.442 0.170 L7.437 0.174 L7.432 0.177 L7.427 0.181 L7.422 0.184 L7.417 0.188 L7.412 0.191 L7.407 0.195 L7.402 0.199 L7.397 0.202 L7.392 0.206 L7.387 0.210 L7.382 0.214 L7.378 0.217 L7.373 0.221 L7.368 0.225 L7.363 0.229 L7.359 0.233 L7.354 0.237 L7.349 0.241 L7.345 0.245 L7.340 0.249 L7.333 0.255 L7.331 0.257 L7.328 0.259 L7.326 0.262 L3.426 3.806 L3.424 3.809 L3.422 3.808 L3.414 3.808 L3.402 3.808 L3.390 3.808 L3.378 3.808 L3.365 3.809 L3.353 3.810 L3.341 3.811 L3.329 3.812 L3.317 3.814 L3.305 3.816 L3.293 3.819 L3.281 3.821 L3.269 3.824 L3.257 3.828 L3.245 3.831 L3.240 3.833 L3.222 3.837 L3.216 3.839 L3.199 3.843 L3.193 3.844 L3.175 3.848 L3.169 3.849 L3.152 3.853 L3.146 3.854 L3.128 3.856 L3.122 3.857 L3.104 3.860 L3.098 3.861 L3.080 3.863 L3.074 3.863 L3.056 3.865 L3.050 3.865 L3.032 3.866 L3.026 3.867 L3.008 3.867 L3.002 3.867 L2.984 3.868 L2.978 3.868 L2.960 3.868 L2.954 3.867 L2.936 3.867 L2.930 3.866 L2.912 3.865 L2.906 3.865 L2.888 3.863 L2.882 3.863 L2.864 3.861 L2.858 3.860 L2.840 3.858 L2.834 3.857 L2.816 3.854 L2.810 3.853 L2.793 3.850 L2.787 3.848 L2.769 3.845 L2.763 3.843 L2.746 3.839 L2.740 3.838 L2.722 3.833 L2.716 3.832 L2.699 3.827 L2.693 3.825 L2.676 3.819 L2.670 3.818 L2.653 3.812 L2.648 3.810 L2.631 3.803 L2.625 3.801 L2.609 3.795 L2.603 3.792 L2.586 3.785 L2.581 3.783 L2.564 3.775 L2.559 3.773 L2.543 3.765 L2.537 3.762 L2.521 3.754 L2.516 3.751 L2.500 3.742 L2.495 3.739 L2.479 3.730 L2.474 3.727 L2.459 3.718 L2.454 3.714 L2.439 3.705 L2.434 3.701 L2.419 3.691 L2.414 3.688 L2.399 3.677 L2.394 3.673 L2.380 3.663 L2.375 3.659 L2.361 3.648 L2.356 3.644 L2.343 3.632 L2.338 3.628 L2.325 3.616 L2.320 3.612 L2.307 3.600 L2.302 3.596 L2.290 3.583 L2.285 3.579 L2.273 3.566 L2.268 3.562 L2.256 3.548 L2.252 3.544 L2.240 3.530 L2.236 3.526 L2.225 3.512 L2.221 3.507 L2.210 3.493 L2.206 3.489 L2.195 3.474 L2.191 3.469 L2.181 3.455 L2.177 3.450 L2.167 3.435 L2.164 3.430 L2.154 3.415 L2.151 3.410 L2.141 3.394 L2.138 3.389 L2.129 3.374 L2.126 3.368 L2.117 3.353 L2.114 3.347 L2.106 3.331 L2.103 3.326 L2.098 3.315 L2.093 3.304 L2.087 3.293 L2.081 3.282 L2.074 3.272 L2.067 3.261 L2.060 3.251 L2.053 3.241 L2.046 3.231 L2.038 3.221 L2.030 3.211 L2.022 3.202 L2.014 3.193 L2.005 3.184 L2.000 3.179 L2.000 3.176 L2.000 -3.497 L2.000 -3.503 L2.000 -3.506 L2.000 -3.518 L1.999 -3.531 L1.998 -3.543 L1.997 -3.555 L1.995 -3.567 L1.994 -3.579 L1.992 -3.591 L1.989 -3.604 L1.986 -3.615 L1.983 -3.627 L1.980 -3.639 L1.977 -3.651 L1.973 -3.663 L1.969 -3.674 L1.964 -3.686 L1.960 -3.697 L1.955 -3.708 L1.949 -3.719 L1.944 -3.730 L1.938 -3.741 L1.932 -3.752 L1.926 -3.762 L1.919 -3.773 L1.912 -3.783 L1.905 -3.793 L1.898 -3.803 L1.890 -3.812 L1.883 -3.822 L1.875 -3.831 L1.866 -3.840 L1.858 -3.849 L1.849 -3.858 L1.840 -3.866 L1.831 -3.875 L1.822 -3.883 L1.812 -3.890 L1.803 -3.898 L1.793 -3.905 L1.783 -3.912 L1.773 -3.919 L1.762 -3.926 L1.752 -3.932 L1.741 -3.938 L1.730 -3.944 L1.719 -3.949 L1.708 -3.955 L1.697 -3.960 L1.686 -3.964 L1.674 -3.969 L1.663 -3.973 L1.651 -3.977 L1.639 -3.980 L1.627 -3.983 L1.615 -3.986 L1.604 -3.989 L1.591 -3.992 L1.579 -3.994 L1.567 -3.995 L1.555 -3.997 L1.543 -3.998 L1.531 -3.999 L1.518 -4.000 L1.506 -4.000 L1.503 -4.000 L1.497 -4.000 L0.503 -4.000 L0.497 -4.000 Z" fill="#0000A8" fill-rule="evenodd" /><path d="M0.000 -3.506 L0.000 -3.503 L0.000 -3.506 Z M0.494 10.000 L0.497 10.000 L0.494 10.000 Z M2.000 9.506 L2.000 9.503 L2.000 9.506 Z M2.000 8.163 L2.008 8.155 L2.017 8.146 L2.025 8.137 L2.033 8.128 L2.040 8.118 L2.048 8.109 L2.055 8.099 L2.062 8.089 L2.069 8.079 L2.075 8.069 L2.081 8.058 L2.087 8.048 L2.093 8.037 L2.098 8.026 L2.103 8.016 L2.106 8.011 L2.114 7.995 L2.117 7.990 L2.126 7.974 L2.129 7.969 L2.138 7.953 L2.141 7.948 L2.150 7.933 L2.153 7.927 L2.163 7.912 L2.166 7.907 L2.177 7.893 L2.180 7.888 L2.191 7.873 L2.194 7.868 L2.205 7.854 L2.209 7.849 L2.220 7.835 L2.224 7.830 L2.235 7.817 L2.239 7.812 L2.251 7.799 L2.255 7.794 L2.267 7.781 L2.272 7.776 L2.284 7.764 L2.289 7.759 L2.301 7.747 L2.306 7.743 L2.319 7.730 L2.323 7.726 L2.337 7.714 L2.341 7.710 L2.355 7.699 L2.360 7.695 L2.374 7.684 L2.379 7.680 L2.393 7.669 L2.398 7.665 L2.412 7.655 L2.417 7.651 L2.432 7.641 L2.437 7.638 L2.452 7.628 L2.457 7.625 L2.472 7.615 L2.478 7.612 L2.493 7.603 L2.498 7.600 L2.514 7.592 L2.520 7.589 L2.535 7.580 L2.541 7.578 L2.557 7.570 L2.562 7.567 L2.579 7.560 L2.584 7.557 L2.601 7.550 L2.606 7.548 L2.623 7.541 L2.629 7.539 L2.645 7.533 L2.651 7.531 L2.668 7.525 L2.674 7.523 L2.691 7.517 L2.697 7.516 L2.714 7.511 L2.720 7.509 L2.737 7.504 L2.743 7.503 L2.761 7.499 L2.767 7.497 L2.784 7.494 L2.790 7.492 L2.808 7.489 L2.814 7.488 L2.831 7.485 L2.837 7.484 L2.855 7.482 L2.861 7.481 L2.879 7.479 L2.885 7.478 L2.903 7.477 L2.909 7.476 L2.927 7.475 L2.933 7.475 L2.951 7.474 L2.957 7.474 L2.975 7.474 L2.981 7.474 L2.999 7.474 L3.005 7.474 L3.023 7.475 L3.029 7.475 L3.041 7.476 L3.053 7.476 L3.066 7.477 L3.078 7.476 L3.091 7.476 L3.103 7.475 L3.116 7.475 L3.128 7.473 L3.141 7.472 L3.153 7.470 L3.165 7.468 L3.178 7.465 L3.190 7.462 L3.200 7.460 L3.201 7.459 L3.203 7.461 L3.184 7.449 L3.173 7.442 L3.140 7.420 L3.129 7.413 L3.098 7.391 L3.087 7.384 L3.056 7.361 L3.045 7.353 L3.015 7.329 L3.005 7.321 L2.974 7.297 L2.965 7.288 L2.935 7.263 L2.925 7.254 L2.897 7.228 L2.887 7.220 L2.859 7.193 L2.850 7.184 L2.822 7.156 L2.813 7.147 L2.787 7.119 L2.778 7.109 L2.752 7.081 L2.744 7.071 L2.718 7.041 L2.710 7.031 L2.686 7.001 L2.678 6.991 L2.654 6.960 L2.646 6.950 L2.623 6.918 L2.616 6.908 L2.594 6.876 L2.587 6.865 L2.566 6.833 L2.559 6.822 L2.538 6.789 L2.532 6.778 L2.512 6.744 L2.506 6.733 L2.487 6.699 L2.481 6.687 L2.464 6.653 L2.458 6.641 L2.441 6.606 L2.436 6.594 L2.420 6.559 L2.415 6.547 L2.400 6.511 L2.395 6.499 L2.381 6.463 L2.376 6.451 L2.363 6.415 L2.359 6.402 L2.347 6.365 L2.343 6.353 L2.332 6.316 L2.328 6.304 L2.318 6.266 L2.315 6.254 L2.306 6.216 L2.303 6.203 L2.294 6.165 L2.292 6.153 L2.285 6.115 L2.282 6.102 L2.276 6.064 L2.274 6.051 L2.269 6.012 L2.267 5.999 L2.263 5.961 L2.262 5.948 L2.258 5.909 L2.257 5.896 L2.255 5.858 L2.254 5.845 L2.253 5.806 L2.253 5.793 L2.253 5.754 L2.253 5.741 L2.253 5.703 L2.254 5.690 L2.255 5.651 L2.256 5.638 L2.259 5.599 L2.260 5.586 L2.264 5.548 L2.265 5.535 L2.270 5.496 L2.271 5.484 L2.277 5.445 L2.279 5.432 L2.286 5.394 L2.288 5.381 L2.296 5.343 L2.299 5.331 L2.307 5.293 L2.310 5.280 L2.320 5.243 L2.323 5.230 L2.334 5.193 L2.338 5.181 L2.349 5.144 L2.353 5.131 L2.366 5.095 L2.370 5.082 L2.384 5.046 L2.388 5.034 L2.403 4.998 L2.408 4.986 L2.423 4.950 L2.428 4.938 L2.445 4.903 L2.450 4.892 L2.467 4.857 L2.473 4.845 L2.491 4.811 L2.497 4.800 L2.516 4.766 L2.523 4.754 L2.542 4.721 L2.549 4.710 L2.570 4.677 L2.577 4.666 L2.598 4.634 L2.606 4.623 L2.628 4.592 L2.636 4.581 L2.659 4.550 L2.667 4.540 L2.691 4.509 L2.699 4.499 L2.723 4.469 L2.732 4.459 L2.757 4.430 L2.766 4.420 L2.792 4.392 L2.801 4.382 L2.828 4.355 L2.837 4.345 L2.865 4.318 L2.874 4.309 L2.900 4.285 L2.905 4.281 L3.426 3.806 L3.424 3.809 L3.422 3.808 L3.414 3.808 L3.402 3.808 L3.390 3.808 L3.378 3.808 L3.365 3.809 L3.353 3.810 L3.341 3.811 L3.329 3.812 L3.317 3.814 L3.305 3.816 L3.293 3.819 L3.281 3.821 L3.269 3.824 L3.257 3.828 L3.245 3.831 L3.240 3.833 L3.222 3.837 L3.216 3.839 L3.199 3.843 L3.193 3.844 L3.175 3.848 L3.169 3.849 L3.152 3.853 L3.146 3.854 L3.128 3.856 L3.122 3.857 L3.104 3.860 L3.098 3.861 L3.080 3.863 L3.074 3.863 L3.056 3.865 L3.050 3.865 L3.032 3.866 L3.026 3.867 L3.008 3.867 L3.002 3.867 L2.984 3.868 L2.978 3.868 L2.960 3.868 L2.954 3.867 L2.936 3.867 L2.930 3.866 L2.912 3.865 L2.906 3.865 L2.888 3.863 L2.882 3.863 L2.864 3.861 L2.858 3.860 L2.840 3.858 L2.834 3.857 L2.816 3.854 L2.810 3.853 L2.793 3.850 L2.787 3.848 L2.769 3.845 L2.763 3.843 L2.746 3.839 L2.740 3.838 L2.722 3.833 L2.716 3.832 L2.699 3.827 L2.693 3.825 L2.676 3.819 L2.670 3.818 L2.653 3.812 L2.648 3.810 L2.631 3.803 L2.625 3.801 L2.609 3.795 L2.603 3.792 L2.586 3.785 L2.581 3.783 L2.564 3.775 L2.559 3.773 L2.543 3.765 L2.537 3.762 L2.521 3.754 L2.516 3.751 L2.500 3.742 L2.495 3.739 L2.479 3.730 L2.474 3.727 L2.459 3.718 L2.454 3.714 L2.439 3.705 L2.434 3.701 L2.419 3.691 L2.414 3.688 L2.399 3.677 L2.394 3.673 L2.380 3.663 L2.375 3.659 L2.361 3.648 L2.356 3.644 L2.343 3.632 L2.338 3.628 L2.325 3.616 L2.320 3.612 L2.307 3.600 L2.302 3.596 L2.290 3.583 L2.285 3.579 L2.273 3.566 L2.268 3.562 L2.256 3.548 L2.252 3.544 L2.240 3.530 L2.236 3.526 L2.225 3.512 L2.221 3.507 L2.210 3.493 L2.206 3.489 L2.195 3.474 L2.191 3.469 L2.181 3.455 L2.177 3.450 L2.167 3.435 L2.164 3.430 L2.154 3.415 L2.151 3.410 L2.141 3.394 L2.138 3.389 L2.129 3.374 L2.126 3.368 L2.117 3.353 L2.114 3.347 L2.106 3.331 L2.103 3.326 L2.098 3.315 L2.093 3.304 L2.087 3.293 L2.081 3.282 L2.074 3.272 L2.067 3.261 L2.060 3.251 L2.053 3.241 L2.046 3.231 L2.038 3.221 L2.030 3.211 L2.022 3.202 L2.014 3.193 L2.005 3.184 L2.000 3.179 L2.000 3.176 L2.000 8.166 Z M4.904 6.084 L4.897 6.080 L4.892 6.077 L4.886 6.075 L4.881 6.072 L4.876 6.068 L4.870 6.065 L4.865 6.062 L4.860 6.059 L4.855 6.055 L4.850 6.052 L4.845 6.049 L4.840 6.045 L4.835 6.042 L4.830 6.038 L4.825 6.034 L4.820 6.030 L4.815 6.027 L4.810 6.023 L4.806 6.019 L4.801 6.015 L4.796 6.011 L4.792 6.007 L4.787 6.002 L4.783 5.998 L4.778 5.994 L4.774 5.990 L4.770 5.985 L4.765 5.981 L4.761 5.976 L4.757 5.972 L4.753 5.967 L4.749 5.963 L4.745 5.958 L4.741 5.953 L4.737 5.948 L4.734 5.944 L4.730 5.939 L4.726 5.934 L4.723 5.929 L4.719 5.924 L4.716 5.919 L4.712 5.914 L4.709 5.908 L4.705 5.903 L4.702 5.898 L4.699 5.893 L4.696 5.887 L4.693 5.882 L4.690 5.877 L4.687 5.871 L4.684 5.866 L4.681 5.860 L4.679 5.855 L4.676 5.849 L4.673 5.844 L4.671 5.838 L4.669 5.833 L4.666 5.827 L4.664 5.821 L4.662 5.815 L4.660 5.810 L4.657 5.804 L4.655 5.798 L4.653 5.792 L4.652 5.786 L4.650 5.781 L4.648 5.775 L4.646 5.769 L4.645 5.763 L4.643 5.757 L4.642 5.751 L4.641 5.745 L4.639 5.739 L4.638 5.733 L4.637 5.727 L4.636 5.721 L4.635 5.715 L4.634 5.709 L4.633 5.703 L4.632 5.697 L4.632 5.690 L4.631 5.684 L4.631 5.678 L4.630 5.672 L4.630 5.666 L4.629 5.660 L4.629 5.654 L4.629 5.648 L4.629 5.641 L4.629 5.635 L4.629 5.629 L4.629 5.623 L4.629 5.617 L4.630 5.611 L4.630 5.605 L4.630 5.599 L4.631 5.592 L4.631 5.586 L4.632 5.580 L4.633 5.574 L4.634 5.568 L4.635 5.562 L4.636 5.556 L4.637 5.550 L4.638 5.544 L4.639 5.538 L4.640 5.532 L4.641 5.526 L4.643 5.520 L4.644 5.514 L4.646 5.508 L4.648 5.502 L4.649 5.496 L4.651 5.490 L4.653 5.484 L4.655 5.478 L4.657 5.473 L4.659 5.467 L4.661 5.461 L4.663 5.455 L4.665 5.450 L4.668 5.444 L4.670 5.438 L4.673 5.433 L4.675 5.427 L4.678 5.422 L4.681 5.416 L4.683 5.411 L4.686 5.405 L4.689 5.400 L4.692 5.394 L4.695 5.389 L4.698 5.384 L4.701 5.378 L4.704 5.373 L4.708 5.368 L4.711 5.363 L4.714 5.358 L4.718 5.353 L4.721 5.348 L4.725 5.343 L4.729 5.338 L4.732 5.333 L4.736 5.328 L4.740 5.323 L4.744 5.318 L4.748 5.314 L4.752 5.309 L4.756 5.304 L4.760 5.300 L4.764 5.295 L4.768 5.291 L4.773 5.287 L4.777 5.282 L4.781 5.278 L4.786 5.274 L4.791 5.268 L4.794 5.266 L8.668 1.744 L8.668 1.744 L4.258 5.753 L4.256 5.755 L4.255 5.756 L4.253 5.758 L4.255 5.760 L4.257 5.760 L4.260 5.762 L4.907 6.085 Z M1.506 -4.000 L1.503 -4.000 L1.506 -4.000 Z" fill="#B87900" fill-rule="evenodd" /><path d="M0.494 -4.000 L0.482 -4.000 L0.469 -3.999 L0.457 -3.998 L0.445 -3.997 L0.433 -3.995 L0.421 -3.994 L0.409 -3.992 L0.396 -3.989 L0.385 -3.986 L0.373 -3.983 L0.361 -3.980 L0.349 -3.977 L0.337 -3.973 L0.326 -3.969 L0.314 -3.964 L0.303 -3.960 L0.292 -3.955 L0.281 -3.949 L0.270 -3.944 L0.259 -3.938 L0.248 -3.932 L0.238 -3.926 L0.227 -3.919 L0.217 -3.912 L0.207 -3.905 L0.197 -3.898 L0.188 -3.890 L0.178 -3.883 L0.169 -3.875 L0.160 -3.866 L0.151 -3.858 L0.142 -3.849 L0.134 -3.840 L0.125 -3.831 L0.117 -3.822 L0.110 -3.812 L0.102 -3.803 L0.095 -3.793 L0.088 -3.783 L0.081 -3.773 L0.074 -3.762 L0.068 -3.752 L0.062 -3.741 L0.056 -3.730 L0.051 -3.719 L0.045 -3.708 L0.040 -3.697 L0.036 -3.686 L0.031 -3.674 L0.027 -3.663 L0.023 -3.651 L0.020 -3.639 L0.017 -3.627 L0.014 -3.615 L0.011 -3.604 L0.008 -3.591 L0.006 -3.579 L0.005 -3.567 L0.003 -3.555 L0.002 -3.543 L0.001 -3.531 L0.000 -3.518 L0.000 -3.506 L0.000 -3.503 L0.000 -3.497 L0.000 9.497 L0.000 9.503 L0.000 9.506 L0.000 9.518 L0.001 9.531 L0.002 9.543 L0.003 9.555 L0.005 9.567 L0.006 9.579 L0.008 9.591 L0.011 9.604 L0.014 9.615 L0.017 9.627 L0.020 9.639 L0.023 9.651 L0.027 9.663 L0.031 9.674 L0.036 9.686 L0.040 9.697 L0.045 9.708 L0.051 9.719 L0.056 9.730 L0.062 9.741 L0.068 9.752 L0.074 9.762 L0.081 9.773 L0.088 9.783 L0.095 9.793 L0.102 9.803 L0.110 9.812 L0.117 9.822 L0.125 9.831 L0.134 9.840 L0.142 9.849 L0.151 9.858 L0.160 9.866 L0.169 9.875 L0.178 9.883 L0.188 9.890 L0.197 9.898 L0.207 9.905 L0.217 9.912 L0.227 9.919 L0.238 9.926 L0.248 9.932 L0.259 9.938 L0.270 9.944 L0.281 9.949 L0.292 9.955 L0.303 9.960 L0.314 9.964 L0.326 9.969 L0.337 9.973 L0.349 9.977 L0.361 9.980 L0.373 9.983 L0.385 9.986 L0.396 9.989 L0.409 9.992 L0.421 9.994 L0.433 9.995 L0.445 9.997 L0.457 9.998 L0.469 9.999 L0.482 10.000 L0.494 10.000 L0.497 10.000 L0.503 10.000 L1.497 10.000 L1.503 10.000 L1.506 10.000 L1.518 10.000 L1.531 9.999 L1.543 9.998 L1.555 9.997 L1.567 9.995 L1.579 9.994 L1.591 9.992 L1.604 9.989 L1.615 9.986 L1.627 9.983 L1.639 9.980 L1.651 9.977 L1.663 9.973 L1.674 9.969 L1.686 9.964 L1.697 9.960 L1.708 9.955 L1.719 9.949 L1.730 9.944 L1.741 9.938 L1.752 9.932 L1.762 9.926 L1.773 9.919 L1.783 9.912 L1.793 9.905 L1.803 9.898 L1.812 9.890 L1.822 9.883 L1.831 9.875 L1.840 9.866 L1.849 9.858 L1.858 9.849 L1.866 9.840 L1.875 9.831 L1.883 9.822 L1.890 9.812 L1.898 9.803 L1.905 9.793 L1.912 9.783 L1.919 9.773 L1.926 9.762 L1.932 9.752 L1.938 9.741 L1.944 9.730 L1.949 9.719 L1.955 9.708 L1.960 9.697 L1.964 9.686 L1.969 9.674 L1.973 9.663 L1.977 9.651 L1.980 9.639 L1.983 9.627 L1.986 9.615 L1.989 9.604 L1.992 9.591 L1.994 9.579 L1.995 9.567 L1.997 9.555 L1.998 9.543 L1.999 9.531 L2.000 9.518 L2.000 9.506 L2.000 9.503 L2.000 9.497 L2.000 6.005 L2.000 6.004 L2.000 6.000 L2.002 6.000 L2.005 6.000 L4.542 6.000 L4.542 6.000 L4.546 6.000 L4.548 6.002 L4.549 6.003 L7.742 9.653 L7.745 9.655 L7.754 9.666 L7.758 9.670 L7.761 9.674 L7.765 9.678 L7.769 9.683 L7.774 9.687 L7.778 9.692 L7.782 9.696 L7.786 9.701 L7.791 9.705 L7.795 9.709 L7.799 9.714 L7.804 9.718 L7.808 9.722 L7.813 9.726 L7.817 9.731 L7.822 9.735 L7.826 9.739 L7.831 9.743 L7.835 9.747 L7.840 9.751 L7.845 9.755 L7.849 9.759 L7.854 9.763 L7.859 9.767 L7.863 9.771 L7.868 9.775 L7.873 9.779 L7.878 9.783 L7.882 9.786 L7.887 9.790 L7.892 9.794 L7.897 9.798 L7.902 9.801 L7.907 9.805 L7.912 9.809 L7.917 9.812 L7.922 9.816 L7.927 9.819 L7.932 9.823 L7.937 9.826 L7.942 9.830 L7.947 9.833 L7.952 9.836 L7.957 9.840 L7.962 9.843 L7.968 9.846 L7.973 9.850 L7.978 9.853 L7.983 9.856 L7.989 9.859 L7.994 9.862 L7.999 9.865 L8.004 9.869 L8.010 9.872 L8.015 9.875 L8.021 9.877 L8.026 9.880 L8.031 9.883 L8.037 9.886 L8.042 9.889 L8.048 9.892 L8.053 9.895 L8.059 9.897 L8.064 9.900 L8.070 9.903 L8.075 9.905 L8.081 9.908 L8.086 9.910 L8.092 9.913 L8.098 9.915 L8.103 9.918 L8.109 9.920 L8.115 9.923 L8.120 9.925 L8.126 9.927 L8.132 9.930 L8.137 9.932 L8.143 9.934 L8.149 9.936 L8.154 9.938 L8.160 9.940 L8.166 9.943 L8.172 9.945 L8.178 9.947 L8.183 9.948 L8.189 9.950 L8.195 9.952 L8.201 9.954 L8.207 9.956 L8.213 9.958 L8.219 9.960 L8.224 9.961 L8.230 9.963 L8.236 9.965 L8.242 9.966 L8.248 9.968 L8.254 9.969 L8.260 9.971 L8.266 9.972 L8.272 9.974 L8.278 9.975 L8.284 9.976 L8.290 9.978 L8.296 9.979 L8.302 9.980 L8.308 9.981 L8.314 9.982 L8.320 9.984 L8.326 9.985 L8.332 9.986 L8.338 9.987 L8.344 9.988 L8.350 9.989 L8.356 9.990 L8.362 9.990 L8.368 9.991 L8.375 9.992 L8.381 9.993 L8.387 9.993 L8.393 9.994 L8.399 9.995 L8.405 9.995 L8.411 9.996 L8.417 9.997 L8.423 9.997 L8.430 9.997 L8.436 9.998 L8.442 9.998 L8.448 9.999 L8.454 9.999 L8.460 9.999 L8.466 9.999 L8.472 10.000 L8.479 10.000 L8.485 10.000 L8.491 10.000 L8.497 10.000 L8.503 10.000 L8.509 10.000 L8.515 10.000 L8.521 10.000 L8.528 10.000 L8.534 9.999 L8.540 9.999 L8.546 9.999 L8.552 9.999 L8.558 9.998 L8.564 9.998 L8.570 9.997 L8.577 9.997 L8.583 9.997 L8.589 9.996 L8.595 9.995 L8.601 9.995 L8.607 9.994 L8.613 9.993 L8.619 9.993 L8.625 9.992 L8.632 9.991 L8.638 9.990 L8.644 9.990 L8.650 9.989 L8.656 9.988 L8.662 9.987 L8.668 9.986 L8.674 9.985 L8.680 9.984 L8.686 9.982 L8.692 9.981 L8.698 9.980 L8.704 9.979 L8.710 9.978 L8.716 9.976 L8.722 9.975 L8.728 9.974 L8.734 9.972 L8.740 9.971 L8.746 9.969 L8.752 9.968 L8.758 9.966 L8.764 9.965 L8.770 9.963 L8.776 9.961 L8.781 9.960 L8.787 9.958 L8.793 9.956 L8.799 9.954 L8.805 9.952 L8.811 9.950 L8.817 9.948 L8.822 9.947 L8.828 9.945 L8.834 9.943 L8.840 9.940 L8.846 9.938 L8.851 9.936 L8.857 9.934 L8.863 9.932 L8.868 9.930 L8.874 9.927 L8.880 9.925 L8.885 9.923 L8.891 9.920 L8.897 9.918 L8.902 9.915 L8.908 9.913 L8.914 9.910 L8.919 9.908 L8.925 9.905 L8.930 9.903 L8.936 9.900 L8.941 9.897 L8.947 9.895 L8.952 9.892 L8.958 9.889 L8.963 9.886 L8.969 9.883 L8.974 9.880 L8.979 9.877 L8.985 9.875 L8.990 9.872 L8.996 9.869 L9.001 9.865 L9.006 9.862 L9.011 9.859 L9.017 9.856 L9.022 9.853 L9.027 9.850 L9.032 9.846 L9.038 9.843 L9.043 9.840 L9.048 9.836 L9.053 9.833 L9.058 9.830 L9.063 9.826 L9.068 9.823 L9.073 9.819 L9.078 9.816 L9.083 9.812 L9.088 9.809 L9.093 9.805 L9.098 9.801 L9.103 9.798 L9.108 9.794 L9.113 9.790 L9.118 9.786 L9.122 9.783 L9.127 9.779 L9.132 9.775 L9.137 9.771 L9.141 9.767 L9.146 9.763 L9.151 9.759 L9.155 9.755 L9.160 9.751 L9.165 9.747 L9.169 9.743 L9.174 9.739 L9.178 9.735 L9.183 9.731 L9.187 9.726 L9.192 9.722 L9.196 9.718 L9.201 9.714 L9.205 9.709 L9.209 9.705 L9.214 9.701 L9.218 9.696 L9.222 9.692 L9.226 9.687 L9.231 9.683 L9.235 9.678 L9.239 9.674 L9.243 9.669 L9.247 9.665 L9.251 9.660 L9.255 9.655 L9.259 9.651 L9.263 9.646 L9.267 9.641 L9.271 9.637 L9.275 9.632 L9.279 9.627 L9.283 9.622 L9.286 9.618 L9.290 9.613 L9.294 9.608 L9.298 9.603 L9.301 9.598 L9.305 9.593 L9.309 9.588 L9.312 9.583 L9.316 9.578 L9.319 9.573 L9.323 9.568 L9.326 9.563 L9.330 9.558 L9.333 9.553 L9.336 9.548 L9.340 9.543 L9.343 9.538 L9.346 9.532 L9.350 9.527 L9.353 9.522 L9.356 9.517 L9.359 9.511 L9.362 9.506 L9.365 9.501 L9.369 9.496 L9.372 9.490 L9.375 9.485 L9.377 9.479 L9.380 9.474 L9.383 9.469 L9.386 9.463 L9.389 9.458 L9.392 9.452 L9.395 9.447 L9.397 9.441 L9.400 9.436 L9.403 9.430 L9.405 9.425 L9.408 9.419 L9.410 9.414 L9.413 9.408 L9.415 9.402 L9.418 9.397 L9.420 9.391 L9.423 9.385 L9.425 9.380 L9.427 9.374 L9.430 9.368 L9.432 9.363 L9.434 9.357 L9.436 9.351 L9.438 9.346 L9.440 9.340 L9.443 9.334 L9.445 9.328 L9.447 9.322 L9.448 9.317 L9.450 9.311 L9.452 9.305 L9.454 9.299 L9.456 9.293 L9.458 9.287 L9.460 9.281 L9.461 9.276 L9.463 9.270 L9.465 9.264 L9.466 9.258 L9.468 9.252 L9.469 9.246 L9.471 9.240 L9.472 9.234 L9.474 9.228 L9.475 9.222 L9.476 9.216 L9.478 9.210 L9.479 9.204 L9.480 9.198 L9.481 9.192 L9.482 9.186 L9.484 9.180 L9.485 9.174 L9.486 9.168 L9.487 9.162 L9.488 9.156 L9.489 9.150 L9.490 9.144 L9.490 9.138 L9.491 9.132 L9.492 9.125 L9.493 9.119 L9.493 9.113 L9.494 9.107 L9.495 9.101 L9.495 9.095 L9.496 9.089 L9.497 9.083 L9.497 9.077 L9.497 9.070 L9.498 9.064 L9.498 9.058 L9.499 9.052 L9.499 9.046 L9.499 9.040 L9.499 9.034 L9.500 9.028 L9.500 9.021 L9.500 9.015 L9.500 9.009 L9.500 9.003 L9.500 8.997 L9.500 8.991 L9.500 8.985 L9.500 8.979 L9.500 8.972 L9.499 8.966 L9.499 8.960 L9.499 8.954 L9.499 8.948 L9.498 8.942 L9.498 8.936 L9.497 8.930 L9.497 8.923 L9.497 8.917 L9.496 8.911 L9.495 8.905 L9.495 8.899 L9.494 8.893 L9.493 8.887 L9.493 8.881 L9.492 8.875 L9.491 8.868 L9.490 8.862 L9.490 8.856 L9.489 8.850 L9.488 8.844 L9.487 8.838 L9.486 8.832 L9.485 8.826 L9.484 8.820 L9.482 8.814 L9.481 8.808 L9.480 8.802 L9.479 8.796 L9.478 8.790 L9.476 8.784 L9.475 8.778 L9.474 8.772 L9.472 8.766 L9.471 8.760 L9.469 8.754 L9.468 8.748 L9.466 8.742 L9.465 8.736 L9.463 8.730 L9.461 8.724 L9.460 8.719 L9.458 8.713 L9.456 8.707 L9.454 8.701 L9.452 8.695 L9.450 8.689 L9.448 8.683 L9.447 8.678 L9.445 8.672 L9.443 8.666 L9.440 8.660 L9.438 8.654 L9.436 8.649 L9.434 8.643 L9.432 8.637 L9.430 8.632 L9.427 8.626 L9.425 8.620 L9.423 8.615 L9.420 8.609 L9.418 8.603 L9.415 8.598 L9.413 8.592 L9.410 8.586 L9.408 8.581 L9.405 8.575 L9.403 8.570 L9.400 8.564 L9.397 8.559 L9.395 8.553 L9.392 8.548 L9.389 8.542 L9.386 8.537 L9.383 8.531 L9.380 8.526 L9.377 8.521 L9.375 8.515 L9.372 8.510 L9.369 8.504 L9.365 8.499 L9.362 8.494 L9.359 8.489 L9.356 8.483 L9.353 8.478 L9.350 8.473 L9.346 8.468 L9.343 8.462 L9.340 8.457 L9.336 8.452 L9.333 8.447 L9.330 8.442 L9.326 8.437 L9.323 8.432 L9.319 8.427 L9.316 8.422 L9.312 8.417 L9.309 8.412 L9.305 8.407 L9.301 8.402 L9.298 8.397 L9.294 8.392 L9.290 8.387 L9.286 8.382 L9.283 8.378 L9.279 8.373 L9.275 8.368 L9.271 8.363 L9.267 8.359 L9.263 8.353 L9.260 8.350 L9.256 8.346 L9.253 8.342 L6.289 4.955 L6.289 4.955 L6.286 4.951 L6.288 4.950 L8.797 1.604 L8.798 1.602 L8.802 1.598 L8.804 1.595 L8.805 1.593 L8.807 1.590 L8.812 1.583 L8.816 1.578 L8.819 1.573 L8.823 1.568 L8.826 1.563 L8.830 1.558 L8.833 1.553 L8.836 1.548 L8.840 1.543 L8.843 1.538 L8.846 1.532 L8.850 1.527 L8.853 1.522 L8.856 1.517 L8.859 1.511 L8.862 1.506 L8.865 1.501 L8.869 1.496 L8.872 1.490 L8.875 1.485 L8.877 1.479 L8.880 1.474 L8.883 1.469 L8.886 1.463 L8.889 1.458 L8.892 1.452 L8.895 1.447 L8.897 1.441 L8.900 1.436 L8.903 1.430 L8.905 1.425 L8.908 1.419 L8.910 1.414 L8.913 1.408 L8.915 1.402 L8.918 1.397 L8.920 1.391 L8.923 1.385 L8.925 1.380 L8.927 1.374 L8.930 1.368 L8.932 1.363 L8.934 1.357 L8.936 1.351 L8.938 1.346 L8.940 1.340 L8.943 1.334 L8.945 1.328 L8.947 1.322 L8.948 1.317 L8.950 1.311 L8.952 1.305 L8.954 1.299 L8.956 1.293 L8.958 1.287 L8.960 1.281 L8.961 1.276 L8.963 1.270 L8.965 1.264 L8.966 1.258 L8.968 1.252 L8.969 1.246 L8.971 1.240 L8.972 1.234 L8.974 1.228 L8.975 1.222 L8.976 1.216 L8.978 1.210 L8.979 1.204 L8.980 1.198 L8.981 1.192 L8.982 1.186 L8.984 1.180 L8.985 1.174 L8.986 1.168 L8.987 1.162 L8.988 1.156 L8.989 1.150 L8.990 1.144 L8.990 1.138 L8.991 1.132 L8.992 1.125 L8.993 1.119 L8.993 1.113 L8.994 1.107 L8.995 1.101 L8.995 1.095 L8.996 1.089 L8.997 1.083 L8.997 1.077 L8.997 1.070 L8.998 1.064 L8.998 1.058 L8.999 1.052 L8.999 1.046 L8.999 1.040 L8.999 1.034 L9.000 1.028 L9.000 1.021 L9.000 1.015 L9.000 1.009 L9.000 1.003 L9.000 0.997 L9.000 0.991 L9.000 0.985 L9.000 0.979 L9.000 0.972 L8.999 0.966 L8.999 0.960 L8.999 0.954 L8.999 0.948 L8.998 0.942 L8.998 0.936 L8.997 0.930 L8.997 0.923 L8.997 0.917 L8.996 0.911 L8.995 0.905 L8.995 0.899 L8.994 0.893 L8.993 0.887 L8.993 0.881 L8.992 0.875 L8.991 0.868 L8.990 0.862 L8.990 0.856 L8.989 0.850 L8.988 0.844 L8.987 0.838 L8.986 0.832 L8.985 0.826 L8.984 0.820 L8.982 0.814 L8.981 0.808 L8.980 0.802 L8.979 0.796 L8.978 0.790 L8.976 0.784 L8.975 0.778 L8.974 0.772 L8.972 0.766 L8.971 0.760 L8.969 0.754 L8.968 0.748 L8.966 0.742 L8.965 0.736 L8.963 0.730 L8.961 0.724 L8.960 0.719 L8.958 0.713 L8.956 0.707 L8.954 0.701 L8.952 0.695 L8.950 0.689 L8.948 0.683 L8.947 0.678 L8.945 0.672 L8.943 0.666 L8.940 0.660 L8.938 0.654 L8.936 0.649 L8.934 0.643 L8.932 0.637 L8.930 0.632 L8.927 0.626 L8.925 0.620 L8.923 0.615 L8.920 0.609 L8.918 0.603 L8.915 0.598 L8.913 0.592 L8.910 0.586 L8.908 0.581 L8.905 0.575 L8.903 0.570 L8.900 0.564 L8.897 0.559 L8.895 0.553 L8.892 0.548 L8.889 0.542 L8.886 0.537 L8.883 0.531 L8.880 0.526 L8.877 0.521 L8.875 0.515 L8.872 0.510 L8.869 0.504 L8.865 0.499 L8.862 0.494 L8.859 0.489 L8.856 0.483 L8.853 0.478 L8.850 0.473 L8.846 0.468 L8.843 0.462 L8.840 0.457 L8.836 0.452 L8.833 0.447 L8.830 0.442 L8.826 0.437 L8.823 0.432 L8.819 0.427 L8.816 0.422 L8.812 0.417 L8.809 0.412 L8.805 0.407 L8.801 0.402 L8.798 0.397 L8.794 0.392 L8.790 0.387 L8.786 0.382 L8.783 0.378 L8.779 0.373 L8.775 0.368 L8.771 0.363 L8.767 0.359 L8.763 0.354 L8.759 0.349 L8.755 0.345 L8.751 0.340 L8.747 0.335 L8.743 0.331 L8.739 0.326 L8.735 0.322 L8.731 0.317 L8.726 0.313 L8.722 0.308 L8.718 0.304 L8.714 0.299 L8.709 0.295 L8.705 0.291 L8.701 0.286 L8.696 0.282 L8.692 0.278 L8.687 0.274 L8.683 0.269 L8.678 0.265 L8.674 0.261 L8.669 0.257 L8.665 0.253 L8.660 0.249 L8.655 0.245 L8.651 0.241 L8.646 0.237 L8.641 0.233 L8.637 0.229 L8.632 0.225 L8.627 0.221 L8.622 0.217 L8.618 0.214 L8.613 0.210 L8.608 0.206 L8.603 0.202 L8.598 0.199 L8.593 0.195 L8.588 0.191 L8.583 0.188 L8.578 0.184 L8.573 0.181 L8.568 0.177 L8.563 0.174 L8.558 0.170 L8.553 0.167 L8.548 0.164 L8.543 0.160 L8.538 0.157 L8.532 0.154 L8.527 0.150 L8.522 0.147 L8.517 0.144 L8.511 0.141 L8.506 0.138 L8.501 0.135 L8.496 0.131 L8.490 0.128 L8.485 0.125 L8.479 0.123 L8.474 0.120 L8.469 0.117 L8.463 0.114 L8.458 0.111 L8.452 0.108 L8.447 0.105 L8.441 0.103 L8.436 0.100 L8.430 0.097 L8.425 0.095 L8.419 0.092 L8.414 0.090 L8.408 0.087 L8.402 0.085 L8.397 0.082 L8.391 0.080 L8.385 0.077 L8.380 0.075 L8.374 0.073 L8.368 0.070 L8.363 0.068 L8.357 0.066 L8.351 0.064 L8.346 0.062 L8.340 0.060 L8.334 0.057 L8.328 0.055 L8.322 0.053 L8.317 0.052 L8.311 0.050 L8.305 0.048 L8.299 0.046 L8.293 0.044 L8.287 0.042 L8.281 0.040 L8.276 0.039 L8.270 0.037 L8.264 0.035 L8.258 0.034 L8.252 0.032 L8.246 0.031 L8.240 0.029 L8.234 0.028 L8.228 0.026 L8.222 0.025 L8.216 0.024 L8.210 0.022 L8.204 0.021 L8.198 0.020 L8.192 0.019 L8.186 0.018 L8.180 0.016 L8.174 0.015 L8.168 0.014 L8.162 0.013 L8.156 0.012 L8.150 0.011 L8.144 0.010 L8.138 0.010 L8.132 0.009 L8.125 0.008 L8.119 0.007 L8.113 0.007 L8.107 0.006 L8.101 0.005 L8.095 0.005 L8.089 0.004 L8.083 0.003 L8.077 0.003 L8.070 0.003 L8.064 0.002 L8.058 0.002 L8.052 0.001 L8.046 0.001 L8.040 0.001 L8.034 0.001 L8.028 0.000 L8.021 0.000 L8.015 0.000 L8.009 0.000 L8.003 0.000 L7.997 0.000 L7.991 0.000 L7.985 0.000 L7.979 0.000 L7.972 0.000 L7.966 0.001 L7.960 0.001 L7.954 0.001 L7.948 0.001 L7.942 0.002 L7.936 0.002 L7.930 0.003 L7.923 0.003 L7.917 0.003 L7.911 0.004 L7.905 0.005 L7.899 0.005 L7.893 0.006 L7.887 0.007 L7.881 0.007 L7.875 0.008 L7.868 0.009 L7.862 0.010 L7.856 0.010 L7.850 0.011 L7.844 0.012 L7.838 0.013 L7.832 0.014 L7.826 0.015 L7.820 0.016 L7.814 0.018 L7.808 0.019 L7.802 0.020 L7.796 0.021 L7.790 0.022 L7.784 0.024 L7.778 0.025 L7.772 0.026 L7.766 0.028 L7.760 0.029 L7.754 0.031 L7.748 0.032 L7.742 0.034 L7.736 0.035 L7.730 0.037 L7.724 0.039 L7.719 0.040 L7.713 0.042 L7.707 0.044 L7.701 0.046 L7.695 0.048 L7.689 0.050 L7.683 0.052 L7.678 0.053 L7.672 0.055 L7.666 0.057 L7.660 0.060 L7.654 0.062 L7.649 0.064 L7.643 0.066 L7.637 0.068 L7.632 0.070 L7.626 0.073 L7.620 0.075 L7.615 0.077 L7.609 0.080 L7.603 0.082 L7.598 0.085 L7.592 0.087 L7.586 0.090 L7.581 0.092 L7.575 0.095 L7.570 0.097 L7.564 0.100 L7.559 0.103 L7.553 0.105 L7.548 0.108 L7.542 0.111 L7.537 0.114 L7.531 0.117 L7.526 0.120 L7.521 0.123 L7.515 0.125 L7.510 0.128 L7.504 0.131 L7.499 0.135 L7.494 0.138 L7.489 0.141 L7.483 0.144 L7.478 0.147 L7.473 0.150 L7.468 0.154 L7.462 0.157 L7.457 0.160 L7.452 0.164 L7.447 0.167 L7.442 0.170 L7.437 0.174 L7.432 0.177 L7.427 0.181 L7.422 0.184 L7.417 0.188 L7.412 0.191 L7.407 0.195 L7.402 0.199 L7.397 0.202 L7.392 0.206 L7.387 0.210 L7.382 0.214 L7.378 0.217 L7.373 0.221 L7.368 0.225 L7.363 0.229 L7.359 0.233 L7.354 0.237 L7.349 0.241 L7.345 0.245 L7.340 0.249 L7.335 0.253 L7.331 0.257 L7.326 0.261 L7.322 0.265 L7.317 0.269 L7.313 0.274 L7.308 0.278 L7.304 0.282 L7.299 0.286 L7.295 0.291 L7.291 0.295 L7.286 0.299 L7.282 0.304 L7.278 0.308 L7.274 0.313 L7.269 0.317 L7.265 0.322 L7.261 0.326 L7.257 0.331 L7.253 0.335 L7.249 0.340 L7.245 0.345 L7.241 0.349 L7.237 0.354 L7.233 0.359 L7.229 0.363 L7.225 0.368 L7.221 0.373 L7.217 0.378 L7.214 0.382 L7.210 0.387 L7.206 0.392 L7.202 0.397 L7.200 0.400 L4.503 3.996 L4.502 3.997 L4.500 4.000 L4.497 4.000 L4.496 4.000 L2.005 4.000 L2.004 4.000 L2.000 4.000 L2.000 3.998 L2.000 3.995 L2.000 -3.497 L2.000 -3.503 L2.000 -3.506 L2.000 -3.518 L1.999 -3.531 L1.998 -3.543 L1.997 -3.555 L1.995 -3.567 L1.994 -3.579 L1.992 -3.591 L1.989 -3.604 L1.986 -3.615 L1.983 -3.627 L1.980 -3.639 L1.977 -3.651 L1.973 -3.663 L1.969 -3.674 L1.964 -3.686 L1.960 -3.697 L1.955 -3.708 L1.949 -3.719 L1.944 -3.730 L1.938 -3.741 L1.932 -3.752 L1.926 -3.762 L1.919 -3.773 L1.912 -3.783 L1.905 -3.793 L1.898 -3.803 L1.890 -3.812 L1.883 -3.822 L1.875 -3.831 L1.866 -3.840 L1.858 -3.849 L1.849 -3.858 L1.840 -3.866 L1.831 -3.875 L1.822 -3.883 L1.812 -3.890 L1.803 -3.898 L1.793 -3.905 L1.783 -3.912 L1.773 -3.919 L1.762 -3.926 L1.752 -3.932 L1.741 -3.938 L1.730 -3.944 L1.719 -3.949 L1.708 -3.955 L1.697 -3.960 L1.686 -3.964 L1.674 -3.969 L1.663 -3.973 L1.651 -3.977 L1.639 -3.980 L1.627 -3.983 L1.615 -3.986 L1.604 -3.989 L1.591 -3.992 L1.579 -3.994 L1.567 -3.995 L1.555 -3.997 L1.543 -3.998 L1.531 -3.999 L1.518 -4.000 L1.506 -4.000 L1.503 -4.000 L1.497 -4.000 L0.503 -4.000 L0.497 -4.000 Z" fill="none" stroke="#101010" stroke-width="0.06" stroke-dasharray="0.25 0.18" /><circle cx="2.5" cy="5.5" r="1.5" fill="none" stroke="#D00000" stroke-width="0.12" /></svg>
