<svg xmlns="http://www.w3.org/2000/svg" viewBox="-2.5 -5.5 15 17" role="img" aria-label="Capital W, current"><rect x="-2.5" y="-5.5" width="15" height="17" fill="#FFFFFF" /><g stroke="#E8E8E8" stroke-width="0.04"><line x1="-2" y1="-5" x2="-2" y2="11" /><line x1="0" y1="-5" x2="0" y2="11" /><line x1="2" y1="-5" x2="2" y2="11" /><line x1="4" y1="-5" x2="4" y2="11" /><line x1="6" y1="-5" x2="6" y2="11" /><line x1="8" y1="-5" x2="8" y2="11" /><line x1="10" y1="-5" x2="10" y2="11" /><line x1="12" y1="-5" x2="12" y2="11" /><line x1="-2.5" y1="-4" x2="12.5" y2="-4" /><line x1="-2.5" y1="-2" x2="12.5" y2="-2" /><line x1="-2.5" y1="0" x2="12.5" y2="0" /><line x1="-2.5" y1="2" x2="12.5" y2="2" /><line x1="-2.5" y1="4" x2="12.5" y2="4" /><line x1="-2.5" y1="6" x2="12.5" y2="6" /><line x1="-2.5" y1="8" x2="12.5" y2="8" /><line x1="-2.5" y1="10" x2="12.5" y2="10" /></g><g stroke="#9A9A9A" stroke-width="0.05"><line x1="-2.5" y1="-4" x2="12.5" y2="-4" /><line x1="-2.5" y1="10" x2="12.5" y2="10" /></g><path d="M0.000 9.500 L0.000 9.512 L0.001 9.525 L0.001 9.537 L0.002 9.549 L0.004 9.561 L0.005 9.573 L0.007 9.585 L0.010 9.598 L0.012 9.610 L0.015 9.621 L0.018 9.633 L0.022 9.645 L0.025 9.657 L0.029 9.668 L0.034 9.680 L0.038 9.691 L0.043 9.703 L0.048 9.714 L0.053 9.725 L0.059 9.736 L0.065 9.746 L0.071 9.757 L0.078 9.767 L0.084 9.778 L0.091 9.788 L0.098 9.798 L0.106 9.808 L0.113 9.817 L0.121 9.827 L0.130 9.836 L0.138 9.845 L0.146 9.854 L0.155 9.862 L0.164 9.870 L0.173 9.879 L0.183 9.887 L0.192 9.894 L0.202 9.902 L0.212 9.909 L0.222 9.916 L0.233 9.922 L0.243 9.929 L0.254 9.935 L0.264 9.941 L0.275 9.947 L0.286 9.952 L0.297 9.957 L0.309 9.962 L0.320 9.966 L0.332 9.971 L0.343 9.975 L0.355 9.978 L0.367 9.982 L0.379 9.985 L0.390 9.988 L0.402 9.990 L0.415 9.993 L0.427 9.995 L0.439 9.996 L0.451 9.998 L0.463 9.999 L0.475 9.999 L0.488 10.000 L0.500 10.000 L1.852 10.000 L1.865 10.000 L1.877 9.999 L1.889 9.999 L1.902 9.998 L1.914 9.996 L1.926 9.995 L1.938 9.993 L1.950 9.990 L1.962 9.988 L1.974 9.985 L1.986 9.982 L1.998 9.978 L2.010 9.974 L2.022 9.970 L2.033 9.966 L2.045 9.961 L2.056 9.957 L2.067 9.951 L2.078 9.946 L2.089 9.940 L2.100 9.934 L2.111 9.928 L2.121 9.921 L2.132 9.915 L2.142 9.908 L2.152 9.900 L2.161 9.893 L2.171 9.885 L2.181 9.877 L2.190 9.869 L2.199 9.860 L2.208 9.852 L2.216 9.843 L2.224 9.834 L2.233 9.825 L2.240 9.815 L2.248 9.805 L2.256 9.795 L2.263 9.785 L2.270 9.775 L2.276 9.765 L2.283 9.754 L2.289 9.744 L2.295 9.733 L2.300 9.722 L2.306 9.711 L2.311 9.699 L4.080 5.628 L4.081 5.625 L4.092 5.600 L4.095 5.594 L4.104 5.576 L4.106 5.570 L4.115 5.553 L4.118 5.547 L4.128 5.530 L4.131 5.524 L4.141 5.508 L4.144 5.502 L4.155 5.485 L4.158 5.480 L4.169 5.463 L4.172 5.458 L4.184 5.442 L4.187 5.437 L4.199 5.421 L4.203 5.416 L4.215 5.400 L4.219 5.395 L4.231 5.380 L4.235 5.375 L4.248 5.360 L4.252 5.355 L4.266 5.341 L4.270 5.336 L4.283 5.322 L4.288 5.317 L4.302 5.303 L4.307 5.299 L4.321 5.285 L4.326 5.281 L4.340 5.268 L4.345 5.264 L4.360 5.251 L4.365 5.247 L4.380 5.234 L4.385 5.230 L4.401 5.219 L4.406 5.215 L4.422 5.203 L4.427 5.199 L4.443 5.188 L4.449 5.185 L4.465 5.174 L4.471 5.171 L4.488 5.160 L4.493 5.157 L4.510 5.147 L4.516 5.144 L4.533 5.135 L4.539 5.132 L4.556 5.123 L4.562 5.120 L4.580 5.112 L4.586 5.109 L4.604 5.101 L4.610 5.099 L4.628 5.091 L4.634 5.089 L4.652 5.082 L4.658 5.079 L4.677 5.073 L4.683 5.071 L4.701 5.065 L4.708 5.063 L4.726 5.057 L4.733 5.056 L4.752 5.051 L4.758 5.049 L4.777 5.044 L4.783 5.043 L4.802 5.039 L4.809 5.038 L4.828 5.034 L4.834 5.033 L4.854 5.030 L4.860 5.029 L4.880 5.026 L4.886 5.026 L4.906 5.024 L4.912 5.023 L4.932 5.022 L4.938 5.021 L4.958 5.020 L4.964 5.020 L4.984 5.019 L4.990 5.019 L5.010 5.019 L5.016 5.019 L5.036 5.020 L5.042 5.020 L5.062 5.021 L5.068 5.022 L5.088 5.023 L5.094 5.024 L5.114 5.026 L5.120 5.026 L5.140 5.029 L5.146 5.030 L5.166 5.033 L5.172 5.034 L5.191 5.038 L5.198 5.039 L5.217 5.043 L5.223 5.044 L5.242 5.049 L5.248 5.051 L5.267 5.056 L5.274 5.057 L5.292 5.063 L5.299 5.065 L5.317 5.071 L5.323 5.073 L5.342 5.079 L5.348 5.082 L5.366 5.089 L5.372 5.091 L5.390 5.099 L5.396 5.101 L5.414 5.109 L5.420 5.112 L5.438 5.120 L5.444 5.123 L5.461 5.132 L5.467 5.135 L5.484 5.144 L5.490 5.147 L5.507 5.157 L5.512 5.160 L5.529 5.171 L5.535 5.174 L5.551 5.185 L5.557 5.188 L5.573 5.199 L5.578 5.203 L5.594 5.215 L5.599 5.219 L5.615 5.230 L5.620 5.234 L5.635 5.247 L5.640 5.251 L5.655 5.264 L5.660 5.268 L5.674 5.281 L5.679 5.285 L5.693 5.299 L5.698 5.303 L5.712 5.317 L5.717 5.322 L5.730 5.336 L5.734 5.341 L5.748 5.355 L5.752 5.360 L5.765 5.375 L5.769 5.380 L5.781 5.395 L5.785 5.400 L5.797 5.416 L5.801 5.421 L5.813 5.437 L5.816 5.442 L5.828 5.458 L5.831 5.463 L5.842 5.480 L5.845 5.485 L5.856 5.502 L5.859 5.508 L5.869 5.524 L5.872 5.530 L5.882 5.547 L5.885 5.553 L5.894 5.570 L5.896 5.576 L5.905 5.594 L5.908 5.600 L5.919 5.625 L5.920 5.628 L7.689 9.699 L7.694 9.711 L7.700 9.722 L7.705 9.733 L7.711 9.744 L7.717 9.754 L7.724 9.765 L7.730 9.775 L7.737 9.785 L7.744 9.795 L7.752 9.805 L7.760 9.815 L7.767 9.825 L7.776 9.834 L7.784 9.843 L7.792 9.852 L7.801 9.860 L7.810 9.869 L7.819 9.877 L7.829 9.885 L7.839 9.893 L7.848 9.900 L7.858 9.908 L7.868 9.915 L7.879 9.921 L7.889 9.928 L7.900 9.934 L7.911 9.940 L7.922 9.946 L7.933 9.951 L7.944 9.957 L7.955 9.961 L7.967 9.966 L7.978 9.970 L7.990 9.974 L8.002 9.978 L8.014 9.982 L8.026 9.985 L8.038 9.988 L8.050 9.990 L8.062 9.993 L8.074 9.995 L8.086 9.996 L8.098 9.998 L8.111 9.999 L8.123 9.999 L8.135 10.000 L8.148 10.000 L9.500 10.000 L9.513 10.000 L9.525 9.999 L9.537 9.999 L9.549 9.998 L9.562 9.996 L9.574 9.995 L9.586 9.993 L9.598 9.990 L9.610 9.988 L9.622 9.985 L9.634 9.982 L9.646 9.978 L9.657 9.975 L9.669 9.971 L9.680 9.966 L9.692 9.962 L9.703 9.957 L9.714 9.952 L9.725 9.947 L9.736 9.941 L9.747 9.935 L9.757 9.929 L9.768 9.922 L9.778 9.916 L9.788 9.909 L9.798 9.902 L9.808 9.894 L9.818 9.887 L9.827 9.879 L9.836 9.870 L9.845 9.862 L9.854 9.854 L9.863 9.845 L9.871 9.836 L9.879 9.827 L9.887 9.817 L9.895 9.808 L9.902 9.798 L9.909 9.788 L9.916 9.778 L9.923 9.767 L9.929 9.757 L9.935 9.746 L9.941 9.736 L9.947 9.725 L9.952 9.714 L9.958 9.703 L9.962 9.691 L9.967 9.680 L9.971 9.668 L9.975 9.657 L9.979 9.645 L9.982 9.633 L9.985 9.621 L9.988 9.610 L9.991 9.598 L9.993 9.585 L9.995 9.573 L9.997 9.561 L9.998 9.549 L9.999 9.537 L10.000 9.525 L10.000 9.512 L10.000 9.500 L10.000 -3.498 L10.000 -3.510 L9.999 -3.522 L9.999 -3.534 L9.998 -3.547 L9.996 -3.559 L9.995 -3.571 L9.993 -3.583 L9.990 -3.595 L9.988 -3.607 L9.985 -3.619 L9.982 -3.631 L9.979 -3.643 L9.975 -3.654 L9.971 -3.666 L9.967 -3.677 L9.962 -3.689 L9.957 -3.700 L9.952 -3.711 L9.947 -3.722 L9.941 -3.733 L9.935 -3.744 L9.929 -3.755 L9.923 -3.765 L9.916 -3.775 L9.909 -3.785 L9.902 -3.795 L9.894 -3.805 L9.887 -3.815 L9.879 -3.824 L9.871 -3.833 L9.862 -3.842 L9.854 -3.851 L9.845 -3.860 L9.836 -3.868 L9.827 -3.876 L9.818 -3.884 L9.808 -3.892 L9.798 -3.899 L9.788 -3.906 L9.778 -3.913 L9.768 -3.920 L9.757 -3.926 L9.747 -3.932 L9.736 -3.938 L9.725 -3.944 L9.714 -3.949 L9.703 -3.955 L9.692 -3.959 L9.681 -3.964 L9.669 -3.968 L9.657 -3.972 L9.646 -3.976 L9.634 -3.979 L9.622 -3.983 L9.610 -3.985 L9.598 -3.988 L9.586 -3.990 L9.574 -3.992 L9.562 -3.994 L9.550 -3.995 L9.538 -3.996 L9.525 -3.997 L9.513 -3.998 L9.501 -3.998 L8.501 -3.999 L8.488 -3.999 L8.476 -3.999 L8.464 -3.998 L8.452 -3.997 L8.439 -3.996 L8.427 -3.994 L8.415 -3.992 L8.403 -3.990 L8.391 -3.987 L8.379 -3.984 L8.367 -3.981 L8.355 -3.978 L8.344 -3.974 L8.332 -3.970 L8.321 -3.966 L8.309 -3.961 L8.298 -3.957 L8.287 -3.951 L8.276 -3.946 L8.265 -3.940 L8.254 -3.935 L8.243 -3.928 L8.233 -3.922 L8.223 -3.915 L8.212 -3.908 L8.203 -3.901 L8.193 -3.894 L8.183 -3.886 L8.174 -3.878 L8.165 -3.870 L8.156 -3.862 L8.147 -3.853 L8.138 -3.844 L8.130 -3.835 L8.122 -3.826 L8.114 -3.817 L8.106 -3.807 L8.099 -3.797 L8.091 -3.787 L8.084 -3.777 L8.078 -3.767 L8.071 -3.757 L8.065 -3.746 L8.059 -3.735 L8.053 -3.724 L8.048 -3.713 L8.043 -3.702 L8.038 -3.691 L8.034 -3.679 L8.029 -3.668 L8.025 -3.656 L8.022 -3.645 L8.018 -3.633 L8.015 -3.621 L8.012 -3.609 L8.010 -3.597 L8.007 -3.585 L8.005 -3.573 L8.004 -3.560 L8.002 -3.548 L8.001 -3.536 L8.001 -3.524 L8.000 -3.512 L8.000 -3.499 L8.000 2.878 L8.000 2.881 L7.999 2.882 L7.993 2.887 L7.985 2.896 L7.977 2.905 L7.969 2.915 L7.961 2.924 L7.953 2.934 L7.946 2.943 L7.939 2.953 L7.932 2.964 L7.926 2.974 L7.919 2.984 L7.913 2.995 L7.908 3.006 L7.902 3.017 L7.896 3.029 L7.893 3.034 L7.885 3.050 L7.882 3.056 L7.873 3.072 L7.870 3.077 L7.861 3.092 L7.858 3.098 L7.849 3.113 L7.845 3.118 L7.835 3.133 L7.832 3.138 L7.822 3.153 L7.818 3.158 L7.808 3.173 L7.804 3.178 L7.793 3.192 L7.789 3.197 L7.778 3.211 L7.774 3.216 L7.763 3.229 L7.759 3.234 L7.747 3.247 L7.742 3.252 L7.730 3.265 L7.726 3.269 L7.713 3.282 L7.709 3.287 L7.696 3.299 L7.692 3.303 L7.678 3.316 L7.674 3.320 L7.660 3.332 L7.656 3.336 L7.642 3.347 L7.637 3.351 L7.623 3.362 L7.618 3.366 L7.604 3.377 L7.599 3.380 L7.584 3.391 L7.579 3.394 L7.564 3.405 L7.559 3.408 L7.544 3.418 L7.539 3.421 L7.524 3.430 L7.518 3.434 L7.503 3.443 L7.497 3.446 L7.482 3.454 L7.476 3.457 L7.460 3.465 L7.455 3.468 L7.439 3.476 L7.433 3.478 L7.417 3.486 L7.411 3.488 L7.394 3.495 L7.389 3.498 L7.372 3.504 L7.366 3.507 L7.349 3.513 L7.344 3.515 L7.327 3.521 L7.321 3.522 L7.304 3.528 L7.298 3.530 L7.280 3.535 L7.274 3.536 L7.257 3.541 L7.251 3.542 L7.233 3.546 L7.227 3.548 L7.210 3.551 L7.204 3.552 L7.186 3.556 L7.180 3.557 L7.162 3.559 L7.156 3.560 L7.138 3.563 L7.132 3.563 L7.114 3.565 L7.108 3.566 L7.090 3.567 L7.084 3.568 L7.066 3.569 L7.060 3.569 L7.042 3.569 L7.036 3.570 L7.018 3.570 L7.012 3.570 L6.994 3.569 L6.988 3.569 L6.970 3.568 L6.964 3.568 L6.946 3.567 L6.940 3.566 L6.922 3.565 L6.916 3.564 L6.898 3.562 L6.889 3.561 L6.876 3.559 L6.864 3.558 L6.851 3.558 L6.839 3.557 L6.826 3.557 L6.814 3.557 L6.801 3.557 L6.789 3.558 L6.776 3.559 L6.764 3.561 L6.752 3.562 L6.739 3.564 L6.728 3.566 L6.728 3.566 L6.725 3.565 L6.667 3.525 L6.656 3.518 L6.601 3.482 L6.590 3.475 L6.535 3.441 L6.523 3.435 L6.467 3.402 L6.455 3.396 L6.398 3.365 L6.387 3.359 L6.328 3.329 L6.317 3.323 L6.258 3.295 L6.246 3.290 L6.186 3.264 L6.174 3.258 L6.114 3.234 L6.102 3.229 L6.041 3.205 L6.029 3.201 L5.967 3.179 L5.955 3.175 L5.893 3.155 L5.880 3.151 L5.818 3.133 L5.805 3.129 L5.742 3.112 L5.730 3.109 L5.666 3.094 L5.653 3.091 L5.590 3.078 L5.577 3.075 L5.513 3.063 L5.500 3.061 L5.435 3.051 L5.423 3.049 L5.358 3.040 L5.345 3.039 L5.280 3.032 L5.267 3.031 L5.202 3.026 L5.189 3.025 L5.124 3.022 L5.111 3.021 L5.046 3.019 L5.033 3.019 L4.967 3.019 L4.954 3.019 L4.889 3.021 L4.876 3.022 L4.811 3.025 L4.798 3.026 L4.733 3.031 L4.720 3.032 L4.655 3.039 L4.642 3.040 L4.577 3.049 L4.565 3.051 L4.500 3.061 L4.487 3.063 L4.423 3.075 L4.410 3.078 L4.347 3.091 L4.334 3.094 L4.270 3.109 L4.258 3.112 L4.195 3.129 L4.182 3.133 L4.120 3.151 L4.107 3.155 L4.045 3.175 L4.033 3.179 L3.971 3.201 L3.959 3.205 L3.898 3.229 L3.886 3.234 L3.826 3.258 L3.814 3.264 L3.754 3.290 L3.742 3.295 L3.683 3.323 L3.672 3.329 L3.613 3.359 L3.602 3.365 L3.545 3.396 L3.533 3.402 L3.477 3.435 L3.465 3.441 L3.410 3.475 L3.399 3.482 L3.344 3.518 L3.333 3.525 L3.277 3.563 L3.272 3.566 L3.272 3.566 L3.261 3.564 L3.248 3.562 L3.236 3.560 L3.223 3.559 L3.211 3.558 L3.198 3.557 L3.185 3.557 L3.173 3.557 L3.160 3.557 L3.148 3.558 L3.135 3.558 L3.122 3.560 L3.110 3.561 L3.099 3.562 L3.093 3.563 L3.075 3.565 L3.069 3.566 L3.051 3.567 L3.045 3.568 L3.027 3.569 L3.021 3.569 L3.003 3.569 L2.997 3.570 L2.979 3.570 L2.973 3.570 L2.955 3.569 L2.949 3.569 L2.931 3.569 L2.925 3.568 L2.907 3.567 L2.901 3.567 L2.883 3.565 L2.877 3.564 L2.860 3.562 L2.854 3.562 L2.836 3.559 L2.830 3.558 L2.812 3.555 L2.806 3.554 L2.789 3.551 L2.783 3.550 L2.765 3.546 L2.759 3.545 L2.742 3.540 L2.736 3.539 L2.719 3.534 L2.713 3.533 L2.696 3.528 L2.690 3.526 L2.673 3.520 L2.667 3.518 L2.650 3.512 L2.644 3.510 L2.627 3.504 L2.622 3.502 L2.605 3.495 L2.600 3.493 L2.583 3.486 L2.578 3.483 L2.561 3.476 L2.556 3.473 L2.540 3.465 L2.534 3.463 L2.518 3.454 L2.513 3.451 L2.497 3.443 L2.492 3.440 L2.477 3.431 L2.471 3.427 L2.456 3.418 L2.451 3.415 L2.436 3.405 L2.431 3.402 L2.416 3.391 L2.411 3.388 L2.397 3.377 L2.392 3.374 L2.378 3.363 L2.373 3.359 L2.359 3.348 L2.354 3.344 L2.341 3.332 L2.336 3.328 L2.323 3.317 L2.318 3.312 L2.305 3.300 L2.301 3.296 L2.288 3.284 L2.284 3.279 L2.271 3.266 L2.267 3.262 L2.255 3.249 L2.251 3.244 L2.239 3.231 L2.235 3.226 L2.223 3.213 L2.220 3.208 L2.208 3.194 L2.205 3.189 L2.194 3.175 L2.190 3.170 L2.180 3.155 L2.176 3.150 L2.166 3.136 L2.163 3.130 L2.153 3.115 L2.150 3.110 L2.140 3.095 L2.137 3.090 L2.128 3.074 L2.125 3.069 L2.117 3.053 L2.114 3.048 L2.106 3.032 L2.103 3.027 L2.098 3.018 L2.093 3.007 L2.087 2.995 L2.081 2.985 L2.074 2.974 L2.068 2.963 L2.061 2.953 L2.053 2.943 L2.046 2.933 L2.038 2.923 L2.030 2.913 L2.022 2.904 L2.013 2.894 L2.005 2.885 L2.000 2.881 L2.000 2.878 L2.000 -3.500 L2.000 -3.512 L1.999 -3.525 L1.999 -3.537 L1.998 -3.549 L1.996 -3.561 L1.995 -3.573 L1.993 -3.585 L1.990 -3.598 L1.988 -3.610 L1.985 -3.621 L1.982 -3.633 L1.978 -3.645 L1.975 -3.657 L1.971 -3.668 L1.966 -3.680 L1.962 -3.691 L1.957 -3.703 L1.952 -3.714 L1.947 -3.725 L1.941 -3.736 L1.935 -3.746 L1.929 -3.757 L1.922 -3.767 L1.916 -3.778 L1.909 -3.788 L1.902 -3.798 L1.894 -3.808 L1.887 -3.817 L1.879 -3.827 L1.870 -3.836 L1.862 -3.845 L1.854 -3.854 L1.845 -3.862 L1.836 -3.870 L1.827 -3.879 L1.817 -3.887 L1.808 -3.894 L1.798 -3.902 L1.788 -3.909 L1.778 -3.916 L1.767 -3.922 L1.757 -3.929 L1.746 -3.935 L1.736 -3.941 L1.725 -3.947 L1.714 -3.952 L1.703 -3.957 L1.691 -3.962 L1.680 -3.966 L1.668 -3.971 L1.657 -3.975 L1.645 -3.978 L1.633 -3.982 L1.621 -3.985 L1.610 -3.988 L1.598 -3.990 L1.585 -3.993 L1.573 -3.995 L1.561 -3.996 L1.549 -3.998 L1.537 -3.999 L1.525 -3.999 L1.512 -4.000 L1.500 -4.000 L0.500 -4.000 L0.488 -4.000 L0.475 -3.999 L0.463 -3.999 L0.451 -3.998 L0.439 -3.996 L0.427 -3.995 L0.415 -3.993 L0.402 -3.990 L0.390 -3.988 L0.379 -3.985 L0.367 -3.982 L0.355 -3.978 L0.343 -3.975 L0.332 -3.971 L0.320 -3.966 L0.309 -3.962 L0.297 -3.957 L0.286 -3.952 L0.275 -3.947 L0.264 -3.941 L0.254 -3.935 L0.243 -3.929 L0.233 -3.922 L0.222 -3.916 L0.212 -3.909 L0.202 -3.902 L0.192 -3.894 L0.183 -3.887 L0.173 -3.879 L0.164 -3.870 L0.155 -3.862 L0.146 -3.854 L0.138 -3.845 L0.130 -3.836 L0.121 -3.827 L0.113 -3.817 L0.106 -3.808 L0.098 -3.798 L0.091 -3.788 L0.084 -3.778 L0.078 -3.767 L0.071 -3.757 L0.065 -3.746 L0.059 -3.736 L0.053 -3.725 L0.048 -3.714 L0.043 -3.703 L0.038 -3.691 L0.034 -3.680 L0.029 -3.668 L0.025 -3.657 L0.022 -3.645 L0.018 -3.633 L0.015 -3.621 L0.012 -3.610 L0.010 -3.598 L0.007 -3.585 L0.005 -3.573 L0.004 -3.561 L0.002 -3.549 L0.001 -3.537 L0.001 -3.525 L0.000 -3.512 L0.000 -3.500 Z" fill="#0000A8" fill-rule="evenodd" /><path d="M4.081 5.625 L4.080 5.627 L4.080 5.628 Z M4.095 5.594 L4.094 5.597 L4.092 5.600 Z M4.106 5.570 L4.105 5.573 L4.104 5.576 Z M4.118 5.547 L4.117 5.550 L4.115 5.553 Z M4.131 5.524 L4.129 5.527 L4.128 5.530 Z M4.144 5.502 L4.143 5.505 L4.141 5.508 Z M4.158 5.480 L4.156 5.483 L4.155 5.485 Z M4.172 5.458 L4.171 5.461 L4.169 5.463 Z M4.187 5.437 L4.185 5.439 L4.184 5.442 Z M4.203 5.416 L4.201 5.418 L4.199 5.421 Z M4.219 5.395 L4.217 5.398 L4.215 5.400 Z M4.235 5.375 L4.233 5.377 L4.231 5.380 Z M4.252 5.355 L4.250 5.358 L4.248 5.360 Z M4.270 5.336 L4.268 5.338 L4.266 5.341 Z M4.288 5.317 L4.286 5.319 L4.283 5.322 Z M4.307 5.299 L4.304 5.301 L4.302 5.303 Z M4.326 5.281 L4.323 5.283 L4.321 5.285 Z M4.345 5.264 L4.343 5.266 L4.340 5.268 Z M4.365 5.247 L4.362 5.249 L4.360 5.251 Z M4.385 5.230 L4.383 5.232 L4.380 5.234 Z M4.406 5.215 L4.404 5.217 L4.401 5.219 Z M4.427 5.199 L4.425 5.201 L4.422 5.203 Z M4.449 5.185 L4.446 5.187 L4.443 5.188 Z M4.471 5.171 L4.468 5.172 L4.465 5.174 Z M4.493 5.157 L4.490 5.159 L4.488 5.160 Z M4.516 5.144 L4.513 5.146 L4.510 5.147 Z M4.539 5.132 L4.536 5.133 L4.533 5.135 Z M4.562 5.120 L4.559 5.122 L4.556 5.123 Z M4.586 5.109 L4.583 5.110 L4.580 5.112 Z M4.610 5.099 L4.607 5.100 L4.604 5.101 Z M4.634 5.089 L4.631 5.090 L4.628 5.091 Z M4.658 5.079 L4.655 5.081 L4.652 5.082 Z M4.683 5.071 L4.680 5.072 L4.677 5.073 Z M4.708 5.063 L4.704 5.064 L4.701 5.065 Z M4.733 5.056 L4.730 5.056 L4.726 5.057 Z M4.758 5.049 L4.755 5.050 L4.752 5.051 Z M4.783 5.043 L4.780 5.044 L4.777 5.044 Z M4.809 5.038 L4.806 5.038 L4.802 5.039 Z M4.834 5.033 L4.831 5.033 L4.828 5.034 Z M4.860 5.029 L4.857 5.029 L4.854 5.030 Z M4.886 5.026 L4.883 5.026 L4.880 5.026 Z M4.912 5.023 L4.909 5.023 L4.906 5.024 Z M4.938 5.021 L4.935 5.021 L4.932 5.022 Z M4.964 5.020 L4.961 5.020 L4.958 5.020 Z M4.990 5.019 L4.987 5.019 L4.984 5.019 Z M5.016 5.019 L5.013 5.019 L5.010 5.019 Z M5.042 5.020 L5.039 5.020 L5.036 5.020 Z M5.068 5.022 L5.065 5.021 L5.062 5.021 Z M5.094 5.024 L5.091 5.023 L5.088 5.023 Z M5.120 5.026 L5.117 5.026 L5.114 5.026 Z M5.146 5.030 L5.143 5.029 L5.140 5.029 Z M5.172 5.034 L5.169 5.033 L5.166 5.033 Z M5.198 5.039 L5.194 5.038 L5.191 5.038 Z M5.223 5.044 L5.220 5.044 L5.217 5.043 Z M5.248 5.051 L5.245 5.050 L5.242 5.049 Z M5.274 5.057 L5.270 5.056 L5.267 5.056 Z M5.299 5.065 L5.296 5.064 L5.292 5.063 Z M5.323 5.073 L5.320 5.072 L5.317 5.071 Z M5.348 5.082 L5.345 5.081 L5.342 5.079 Z M5.372 5.091 L5.369 5.090 L5.366 5.089 Z M5.396 5.101 L5.393 5.100 L5.390 5.099 Z M5.420 5.112 L5.417 5.110 L5.414 5.109 Z M5.444 5.123 L5.441 5.122 L5.438 5.120 Z M5.467 5.135 L5.464 5.133 L5.461 5.132 Z M5.490 5.147 L5.487 5.146 L5.484 5.144 Z M5.512 5.160 L5.510 5.159 L5.507 5.157 Z M5.535 5.174 L5.532 5.172 L5.529 5.171 Z M5.557 5.188 L5.554 5.187 L5.551 5.185 Z M5.578 5.203 L5.575 5.201 L5.573 5.199 Z M5.599 5.219 L5.596 5.217 L5.594 5.215 Z M5.620 5.234 L5.617 5.232 L5.615 5.230 Z M5.640 5.251 L5.638 5.249 L5.635 5.247 Z M5.660 5.268 L5.657 5.266 L5.655 5.264 Z M5.679 5.285 L5.677 5.283 L5.674 5.281 Z M5.698 5.303 L5.696 5.301 L5.693 5.299 Z M5.717 5.322 L5.714 5.319 L5.712 5.317 Z M5.734 5.341 L5.732 5.338 L5.730 5.336 Z M5.752 5.360 L5.750 5.358 L5.748 5.355 Z M5.769 5.380 L5.767 5.377 L5.765 5.375 Z M5.785 5.400 L5.783 5.398 L5.781 5.395 Z M5.801 5.421 L5.799 5.418 L5.797 5.416 Z M5.816 5.442 L5.815 5.439 L5.813 5.437 Z M5.831 5.463 L5.829 5.461 L5.828 5.458 Z M5.845 5.485 L5.844 5.483 L5.842 5.480 Z M5.859 5.508 L5.857 5.505 L5.856 5.502 Z M5.872 5.530 L5.871 5.527 L5.869 5.524 Z M5.885 5.553 L5.883 5.550 L5.882 5.547 Z M5.896 5.576 L5.895 5.573 L5.894 5.570 Z M5.908 5.600 L5.906 5.597 L5.905 5.594 Z M5.920 5.628 L5.920 5.627 L5.919 5.625 Z M10.000 9.512 L10.000 9.500 L10.000 -3.498 L10.000 -3.499 L10.000 9.520 Z M8.000 2.881 L7.999 2.882 L7.993 2.887 L7.985 2.896 L7.977 2.905 L7.969 2.915 L7.961 2.924 L7.953 2.934 L7.946 2.943 L7.939 2.953 L7.932 2.964 L7.926 2.974 L7.919 2.984 L7.913 2.995 L7.908 3.006 L7.902 3.017 L7.896 3.029 L7.893 3.034 L7.885 3.050 L7.882 3.056 L7.873 3.072 L7.870 3.077 L7.861 3.092 L7.858 3.098 L7.849 3.113 L7.845 3.118 L7.835 3.133 L7.832 3.138 L7.822 3.153 L7.818 3.158 L7.808 3.173 L7.804 3.178 L7.793 3.192 L7.789 3.197 L7.778 3.211 L7.774 3.216 L7.763 3.229 L7.759 3.234 L7.747 3.247 L7.742 3.252 L7.730 3.265 L7.726 3.269 L7.713 3.282 L7.709 3.287 L7.696 3.299 L7.692 3.303 L7.678 3.316 L7.674 3.320 L7.660 3.332 L7.656 3.336 L7.642 3.347 L7.637 3.351 L7.623 3.362 L7.618 3.366 L7.604 3.377 L7.599 3.380 L7.584 3.391 L7.579 3.394 L7.564 3.405 L7.559 3.408 L7.544 3.418 L7.539 3.421 L7.524 3.430 L7.518 3.434 L7.503 3.443 L7.497 3.446 L7.482 3.454 L7.476 3.457 L7.460 3.465 L7.455 3.468 L7.439 3.476 L7.433 3.478 L7.417 3.486 L7.411 3.488 L7.394 3.495 L7.389 3.498 L7.372 3.504 L7.366 3.507 L7.349 3.513 L7.344 3.515 L7.327 3.521 L7.321 3.522 L7.304 3.528 L7.298 3.530 L7.280 3.535 L7.274 3.536 L7.257 3.541 L7.251 3.542 L7.233 3.546 L7.227 3.548 L7.210 3.551 L7.204 3.552 L7.186 3.556 L7.180 3.557 L7.162 3.559 L7.156 3.560 L7.138 3.563 L7.132 3.563 L7.114 3.565 L7.108 3.566 L7.090 3.567 L7.084 3.568 L7.066 3.569 L7.060 3.569 L7.042 3.569 L7.036 3.570 L7.018 3.570 L7.012 3.570 L6.994 3.569 L6.988 3.569 L6.970 3.568 L6.964 3.568 L6.946 3.567 L6.940 3.566 L6.922 3.565 L6.916 3.564 L6.898 3.562 L6.889 3.561 L6.876 3.559 L6.864 3.558 L6.851 3.558 L6.839 3.557 L6.826 3.557 L6.814 3.557 L6.801 3.557 L6.789 3.558 L6.776 3.559 L6.764 3.561 L6.752 3.562 L6.739 3.564 L6.728 3.566 L6.728 3.566 L6.727 3.566 L6.790 3.611 L6.852 3.659 L6.913 3.708 L6.972 3.758 L7.031 3.811 L7.088 3.864 L7.143 3.920 L7.197 3.976 L7.250 4.034 L7.301 4.094 L7.350 4.154 L7.398 4.216 L7.444 4.279 L7.489 4.344 L7.532 4.409 L7.573 4.476 L7.612 4.543 L7.650 4.612 L7.686 4.682 L7.719 4.752 L7.749 4.818 L8.000 5.396 L8.000 2.878 Z M3.272 3.566 L3.272 3.566 L3.261 3.564 L3.248 3.562 L3.236 3.560 L3.223 3.559 L3.211 3.558 L3.198 3.557 L3.185 3.557 L3.173 3.557 L3.160 3.557 L3.148 3.558 L3.135 3.558 L3.122 3.560 L3.110 3.561 L3.099 3.562 L3.093 3.563 L3.075 3.565 L3.069 3.566 L3.051 3.567 L3.045 3.568 L3.027 3.569 L3.021 3.569 L3.003 3.569 L2.997 3.570 L2.979 3.570 L2.973 3.570 L2.955 3.569 L2.949 3.569 L2.931 3.569 L2.925 3.568 L2.907 3.567 L2.901 3.567 L2.883 3.565 L2.877 3.564 L2.860 3.562 L2.854 3.562 L2.836 3.559 L2.830 3.558 L2.812 3.555 L2.806 3.554 L2.789 3.551 L2.783 3.550 L2.765 3.546 L2.759 3.545 L2.742 3.540 L2.736 3.539 L2.719 3.534 L2.713 3.533 L2.696 3.528 L2.690 3.526 L2.673 3.520 L2.667 3.518 L2.650 3.512 L2.644 3.510 L2.627 3.504 L2.622 3.502 L2.605 3.495 L2.600 3.493 L2.583 3.486 L2.578 3.483 L2.561 3.476 L2.556 3.473 L2.540 3.465 L2.534 3.463 L2.518 3.454 L2.513 3.451 L2.497 3.443 L2.492 3.440 L2.477 3.431 L2.471 3.427 L2.456 3.418 L2.451 3.415 L2.436 3.405 L2.431 3.402 L2.416 3.391 L2.411 3.388 L2.397 3.377 L2.392 3.374 L2.378 3.363 L2.373 3.359 L2.359 3.348 L2.354 3.344 L2.341 3.332 L2.336 3.328 L2.323 3.317 L2.318 3.312 L2.305 3.300 L2.301 3.296 L2.288 3.284 L2.284 3.279 L2.271 3.266 L2.267 3.262 L2.255 3.249 L2.251 3.244 L2.239 3.231 L2.235 3.226 L2.223 3.213 L2.220 3.208 L2.208 3.194 L2.205 3.189 L2.194 3.175 L2.190 3.170 L2.180 3.155 L2.176 3.150 L2.166 3.136 L2.163 3.130 L2.153 3.115 L2.150 3.110 L2.140 3.095 L2.137 3.090 L2.128 3.074 L2.125 3.069 L2.117 3.053 L2.114 3.048 L2.106 3.032 L2.103 3.027 L2.098 3.018 L2.093 3.007 L2.087 2.995 L2.081 2.985 L2.074 2.974 L2.068 2.963 L2.061 2.953 L2.053 2.943 L2.046 2.933 L2.038 2.923 L2.030 2.913 L2.022 2.904 L2.013 2.894 L2.005 2.885 L2.000 2.881 L2.000 2.878 L2.000 5.396 L2.251 4.818 L2.281 4.752 L2.314 4.682 L2.350 4.612 L2.388 4.543 L2.427 4.476 L2.468 4.409 L2.511 4.344 L2.556 4.279 L2.602 4.216 L2.650 4.154 L2.699 4.094 L2.750 4.034 L2.803 3.976 L2.857 3.920 L2.912 3.864 L2.969 3.811 L3.028 3.758 L3.087 3.708 L3.148 3.659 L3.210 3.611 L3.274 3.565 L3.277 3.563 Z" fill="#B87900" fill-rule="evenodd" /><path d="M0.000 9.500 L0.000 9.512 L0.001 9.525 L0.001 9.537 L0.002 9.549 L0.004 9.561 L0.005 9.573 L0.007 9.585 L0.010 9.598 L0.012 9.610 L0.015 9.621 L0.018 9.633 L0.022 9.645 L0.025 9.657 L0.029 9.668 L0.034 9.680 L0.038 9.691 L0.043 9.703 L0.048 9.714 L0.053 9.725 L0.059 9.736 L0.065 9.746 L0.071 9.757 L0.078 9.767 L0.084 9.778 L0.091 9.788 L0.098 9.798 L0.106 9.808 L0.113 9.817 L0.121 9.827 L0.130 9.836 L0.138 9.845 L0.146 9.854 L0.155 9.862 L0.164 9.870 L0.173 9.879 L0.183 9.887 L0.192 9.894 L0.202 9.902 L0.212 9.909 L0.222 9.916 L0.233 9.922 L0.243 9.929 L0.254 9.935 L0.264 9.941 L0.275 9.947 L0.286 9.952 L0.297 9.957 L0.309 9.962 L0.320 9.966 L0.332 9.971 L0.343 9.975 L0.355 9.978 L0.367 9.982 L0.379 9.985 L0.390 9.988 L0.402 9.990 L0.415 9.993 L0.427 9.995 L0.439 9.996 L0.451 9.998 L0.463 9.999 L0.475 9.999 L0.488 10.000 L0.500 10.000 L2.041 10.000 L2.053 10.000 L2.065 9.999 L2.077 9.999 L2.089 9.998 L2.101 9.996 L2.113 9.995 L2.125 9.993 L2.137 9.991 L2.149 9.988 L2.161 9.985 L2.172 9.982 L2.184 9.979 L2.196 9.975 L2.207 9.972 L2.218 9.967 L2.230 9.963 L2.241 9.958 L2.252 9.953 L2.263 9.948 L2.274 9.942 L2.284 9.937 L2.295 9.931 L2.305 9.924 L2.315 9.918 L2.325 9.911 L2.335 9.904 L2.345 9.897 L2.354 9.889 L2.364 9.882 L2.373 9.874 L2.382 9.866 L2.391 9.857 L2.399 9.849 L2.407 9.840 L2.416 9.831 L2.423 9.822 L2.431 9.812 L3.433 8.560 L3.435 8.557 L3.469 8.516 L3.473 8.511 L3.503 8.476 L3.507 8.472 L3.538 8.438 L3.542 8.433 L3.574 8.401 L3.579 8.396 L3.611 8.364 L3.616 8.359 L3.649 8.328 L3.654 8.324 L3.687 8.294 L3.692 8.290 L3.727 8.260 L3.732 8.256 L3.768 8.228 L3.773 8.224 L3.809 8.196 L3.814 8.192 L3.851 8.166 L3.856 8.162 L3.894 8.137 L3.899 8.133 L3.938 8.108 L3.943 8.105 L3.982 8.081 L3.988 8.078 L4.027 8.055 L4.033 8.052 L4.073 8.031 L4.078 8.028 L4.119 8.007 L4.125 8.004 L4.166 7.985 L4.172 7.982 L4.213 7.964 L4.219 7.961 L4.261 7.944 L4.267 7.942 L4.310 7.926 L4.316 7.923 L4.359 7.908 L4.365 7.906 L4.408 7.892 L4.415 7.890 L4.458 7.878 L4.464 7.876 L4.508 7.864 L4.515 7.863 L4.559 7.852 L4.565 7.851 L4.610 7.841 L4.616 7.840 L4.661 7.832 L4.667 7.831 L4.712 7.824 L4.718 7.823 L4.764 7.817 L4.770 7.816 L4.815 7.811 L4.822 7.811 L4.867 7.807 L4.873 7.807 L4.919 7.804 L4.925 7.804 L4.971 7.803 L4.977 7.803 L5.023 7.803 L5.029 7.803 L5.075 7.804 L5.081 7.804 L5.127 7.807 L5.133 7.807 L5.178 7.811 L5.185 7.811 L5.230 7.816 L5.236 7.817 L5.282 7.823 L5.288 7.824 L5.333 7.831 L5.339 7.832 L5.384 7.840 L5.390 7.841 L5.435 7.851 L5.441 7.852 L5.485 7.863 L5.492 7.864 L5.536 7.876 L5.542 7.878 L5.585 7.890 L5.592 7.892 L5.635 7.906 L5.641 7.908 L5.684 7.923 L5.690 7.926 L5.733 7.942 L5.739 7.944 L5.781 7.961 L5.787 7.964 L5.828 7.982 L5.834 7.985 L5.875 8.004 L5.881 8.007 L5.922 8.028 L5.927 8.031 L5.967 8.052 L5.973 8.055 L6.012 8.078 L6.018 8.081 L6.057 8.105 L6.062 8.108 L6.101 8.133 L6.106 8.137 L6.144 8.162 L6.149 8.166 L6.186 8.192 L6.191 8.196 L6.227 8.224 L6.232 8.228 L6.268 8.256 L6.273 8.260 L6.308 8.290 L6.313 8.294 L6.346 8.324 L6.351 8.328 L6.384 8.359 L6.389 8.364 L6.421 8.396 L6.426 8.401 L6.458 8.433 L6.462 8.438 L6.493 8.472 L6.497 8.476 L6.527 8.511 L6.531 8.516 L6.565 8.557 L6.567 8.560 L7.569 9.812 L7.577 9.822 L7.584 9.831 L7.593 9.840 L7.601 9.849 L7.609 9.857 L7.618 9.866 L7.627 9.874 L7.636 9.882 L7.646 9.889 L7.655 9.897 L7.665 9.904 L7.675 9.911 L7.685 9.918 L7.695 9.924 L7.705 9.931 L7.716 9.937 L7.726 9.942 L7.737 9.948 L7.748 9.953 L7.759 9.958 L7.770 9.963 L7.782 9.967 L7.793 9.972 L7.804 9.975 L7.816 9.979 L7.828 9.982 L7.839 9.985 L7.851 9.988 L7.863 9.991 L7.875 9.993 L7.887 9.995 L7.899 9.996 L7.911 9.998 L7.923 9.999 L7.935 9.999 L7.947 10.000 L7.959 10.000 L9.500 10.000 L9.512 10.000 L9.525 9.999 L9.537 9.999 L9.549 9.998 L9.561 9.996 L9.573 9.995 L9.585 9.993 L9.598 9.990 L9.610 9.988 L9.621 9.985 L9.633 9.982 L9.645 9.978 L9.657 9.975 L9.668 9.971 L9.680 9.966 L9.691 9.962 L9.703 9.957 L9.714 9.952 L9.725 9.947 L9.736 9.941 L9.746 9.935 L9.757 9.929 L9.767 9.922 L9.778 9.916 L9.788 9.909 L9.798 9.902 L9.808 9.894 L9.817 9.887 L9.827 9.879 L9.836 9.870 L9.845 9.862 L9.854 9.854 L9.862 9.845 L9.870 9.836 L9.879 9.827 L9.887 9.817 L9.894 9.808 L9.902 9.798 L9.909 9.788 L9.916 9.778 L9.922 9.767 L9.929 9.757 L9.935 9.746 L9.941 9.736 L9.947 9.725 L9.952 9.714 L9.957 9.703 L9.962 9.691 L9.966 9.680 L9.971 9.668 L9.975 9.657 L9.978 9.645 L9.982 9.633 L9.985 9.621 L9.988 9.610 L9.990 9.598 L9.993 9.585 L9.995 9.573 L9.996 9.561 L9.998 9.549 L9.999 9.537 L9.999 9.525 L10.000 9.512 L10.000 9.500 L10.000 -3.500 L10.000 -3.512 L9.999 -3.525 L9.999 -3.537 L9.998 -3.549 L9.996 -3.561 L9.995 -3.573 L9.993 -3.585 L9.990 -3.598 L9.988 -3.610 L9.985 -3.621 L9.982 -3.633 L9.978 -3.645 L9.975 -3.657 L9.971 -3.668 L9.966 -3.680 L9.962 -3.691 L9.957 -3.703 L9.952 -3.714 L9.947 -3.725 L9.941 -3.736 L9.935 -3.746 L9.929 -3.757 L9.922 -3.767 L9.916 -3.778 L9.909 -3.788 L9.902 -3.798 L9.894 -3.808 L9.887 -3.817 L9.879 -3.827 L9.870 -3.836 L9.862 -3.845 L9.854 -3.854 L9.845 -3.862 L9.836 -3.870 L9.827 -3.879 L9.817 -3.887 L9.808 -3.894 L9.798 -3.902 L9.788 -3.909 L9.778 -3.916 L9.767 -3.922 L9.757 -3.929 L9.746 -3.935 L9.736 -3.941 L9.725 -3.947 L9.714 -3.952 L9.703 -3.957 L9.691 -3.962 L9.680 -3.966 L9.668 -3.971 L9.657 -3.975 L9.645 -3.978 L9.633 -3.982 L9.621 -3.985 L9.610 -3.988 L9.598 -3.990 L9.585 -3.993 L9.573 -3.995 L9.561 -3.996 L9.549 -3.998 L9.537 -3.999 L9.525 -3.999 L9.512 -4.000 L9.500 -4.000 L8.500 -4.000 L8.488 -4.000 L8.475 -3.999 L8.463 -3.999 L8.451 -3.998 L8.439 -3.996 L8.427 -3.995 L8.415 -3.993 L8.402 -3.990 L8.390 -3.988 L8.379 -3.985 L8.367 -3.982 L8.355 -3.978 L8.343 -3.975 L8.332 -3.971 L8.320 -3.966 L8.309 -3.962 L8.297 -3.957 L8.286 -3.952 L8.275 -3.947 L8.264 -3.941 L8.254 -3.935 L8.243 -3.929 L8.233 -3.922 L8.222 -3.916 L8.212 -3.909 L8.202 -3.902 L8.192 -3.894 L8.183 -3.887 L8.173 -3.879 L8.164 -3.870 L8.155 -3.862 L8.146 -3.854 L8.138 -3.845 L8.130 -3.836 L8.121 -3.827 L8.113 -3.817 L8.106 -3.808 L8.098 -3.798 L8.091 -3.788 L8.084 -3.778 L8.078 -3.767 L8.071 -3.757 L8.065 -3.746 L8.059 -3.736 L8.053 -3.725 L8.048 -3.714 L8.043 -3.703 L8.038 -3.691 L8.034 -3.680 L8.029 -3.668 L8.025 -3.657 L8.022 -3.645 L8.018 -3.633 L8.015 -3.621 L8.012 -3.610 L8.010 -3.598 L8.007 -3.585 L8.005 -3.573 L8.004 -3.561 L8.002 -3.549 L8.001 -3.537 L8.001 -3.525 L8.000 -3.512 L8.000 -3.500 L8.000 5.539 L8.000 5.542 L7.992 5.550 L7.983 5.559 L7.975 5.568 L7.967 5.577 L7.960 5.587 L7.952 5.596 L7.945 5.606 L7.938 5.616 L7.932 5.626 L7.925 5.636 L7.919 5.647 L7.913 5.657 L7.907 5.668 L7.902 5.679 L7.897 5.689 L7.894 5.694 L7.886 5.710 L7.883 5.715 L7.874 5.731 L7.871 5.736 L7.862 5.752 L7.859 5.757 L7.850 5.772 L7.847 5.777 L7.837 5.793 L7.833 5.798 L7.823 5.812 L7.820 5.817 L7.809 5.832 L7.806 5.837 L7.795 5.851 L7.791 5.856 L7.780 5.870 L7.776 5.875 L7.764 5.888 L7.760 5.893 L7.749 5.906 L7.744 5.911 L7.732 5.924 L7.728 5.929 L7.716 5.941 L7.711 5.946 L7.698 5.958 L7.694 5.962 L7.681 5.975 L7.676 5.979 L7.663 5.991 L7.658 5.995 L7.645 6.006 L7.640 6.010 L7.626 6.021 L7.621 6.025 L7.607 6.036 L7.602 6.040 L7.587 6.050 L7.582 6.054 L7.568 6.064 L7.563 6.067 L7.548 6.077 L7.542 6.080 L7.527 6.090 L7.522 6.093 L7.506 6.102 L7.501 6.105 L7.485 6.113 L7.480 6.116 L7.464 6.125 L7.459 6.127 L7.443 6.135 L7.437 6.138 L7.421 6.145 L7.415 6.148 L7.399 6.155 L7.393 6.157 L7.376 6.164 L7.371 6.166 L7.354 6.172 L7.348 6.174 L7.331 6.180 L7.325 6.182 L7.308 6.188 L7.303 6.189 L7.285 6.194 L7.279 6.196 L7.262 6.201 L7.256 6.202 L7.239 6.206 L7.233 6.208 L7.215 6.211 L7.209 6.213 L7.192 6.216 L7.186 6.217 L7.168 6.220 L7.162 6.221 L7.144 6.223 L7.138 6.224 L7.120 6.226 L7.114 6.226 L7.096 6.228 L7.090 6.228 L7.072 6.230 L7.066 6.230 L7.048 6.231 L7.042 6.231 L7.024 6.231 L7.018 6.231 L7.016 6.231 L7.003 6.231 L6.991 6.231 L6.979 6.232 L6.967 6.233 L6.954 6.234 L6.942 6.236 L6.930 6.237 L6.918 6.240 L6.906 6.242 L6.894 6.245 L6.882 6.248 L6.870 6.251 L6.858 6.255 L6.851 6.257 L6.849 6.256 L6.762 6.212 L6.750 6.206 L6.668 6.167 L6.656 6.162 L6.573 6.125 L6.561 6.120 L6.477 6.085 L6.465 6.081 L6.380 6.048 L6.368 6.044 L6.282 6.014 L6.270 6.010 L6.183 5.982 L6.171 5.978 L6.084 5.952 L6.071 5.949 L5.983 5.925 L5.971 5.922 L5.882 5.901 L5.870 5.898 L5.781 5.880 L5.768 5.877 L5.679 5.861 L5.666 5.858 L5.576 5.844 L5.563 5.843 L5.473 5.831 L5.460 5.829 L5.370 5.820 L5.357 5.819 L5.266 5.812 L5.253 5.811 L5.162 5.806 L5.149 5.805 L5.058 5.803 L5.045 5.803 L4.955 5.803 L4.942 5.803 L4.851 5.805 L4.838 5.806 L4.747 5.811 L4.734 5.812 L4.643 5.819 L4.630 5.820 L4.540 5.829 L4.527 5.831 L4.437 5.843 L4.424 5.844 L4.334 5.858 L4.321 5.861 L4.232 5.877 L4.219 5.880 L4.130 5.898 L4.118 5.901 L4.029 5.922 L4.017 5.925 L3.929 5.949 L3.916 5.952 L3.829 5.978 L3.817 5.982 L3.730 6.010 L3.718 6.014 L3.632 6.044 L3.620 6.048 L3.535 6.081 L3.523 6.085 L3.439 6.120 L3.427 6.125 L3.344 6.162 L3.332 6.167 L3.250 6.206 L3.238 6.212 L3.154 6.254 L3.149 6.257 L3.149 6.257 L3.147 6.256 L3.140 6.254 L3.128 6.250 L3.116 6.247 L3.105 6.244 L3.093 6.242 L3.081 6.239 L3.069 6.237 L3.057 6.235 L3.045 6.234 L3.033 6.233 L3.021 6.232 L3.008 6.231 L2.996 6.231 L2.984 6.231 L2.982 6.231 L2.976 6.231 L2.958 6.231 L2.952 6.231 L2.934 6.230 L2.928 6.230 L2.910 6.228 L2.904 6.228 L2.886 6.226 L2.880 6.226 L2.862 6.224 L2.856 6.223 L2.838 6.221 L2.832 6.220 L2.814 6.217 L2.808 6.216 L2.791 6.213 L2.785 6.211 L2.767 6.208 L2.761 6.206 L2.744 6.202 L2.738 6.201 L2.721 6.196 L2.715 6.194 L2.697 6.189 L2.692 6.188 L2.675 6.182 L2.669 6.180 L2.652 6.174 L2.646 6.172 L2.629 6.166 L2.624 6.164 L2.607 6.157 L2.601 6.155 L2.585 6.148 L2.579 6.145 L2.563 6.138 L2.557 6.135 L2.541 6.127 L2.536 6.125 L2.520 6.116 L2.515 6.113 L2.499 6.105 L2.494 6.102 L2.478 6.093 L2.473 6.090 L2.458 6.080 L2.452 6.077 L2.437 6.067 L2.432 6.064 L2.418 6.054 L2.413 6.050 L2.398 6.040 L2.393 6.036 L2.379 6.025 L2.374 6.021 L2.360 6.010 L2.355 6.006 L2.342 5.995 L2.337 5.991 L2.324 5.979 L2.319 5.975 L2.306 5.962 L2.302 5.958 L2.289 5.946 L2.284 5.941 L2.272 5.929 L2.268 5.924 L2.256 5.911 L2.251 5.906 L2.240 5.893 L2.236 5.888 L2.224 5.875 L2.220 5.870 L2.209 5.856 L2.205 5.851 L2.194 5.837 L2.191 5.832 L2.180 5.817 L2.177 5.812 L2.167 5.798 L2.163 5.793 L2.153 5.777 L2.150 5.772 L2.141 5.757 L2.138 5.752 L2.129 5.736 L2.126 5.731 L2.117 5.715 L2.114 5.710 L2.106 5.694 L2.103 5.689 L2.098 5.679 L2.093 5.667 L2.087 5.656 L2.081 5.646 L2.074 5.635 L2.067 5.624 L2.060 5.614 L2.053 5.604 L2.046 5.594 L2.038 5.584 L2.030 5.574 L2.022 5.565 L2.013 5.555 L2.005 5.546 L2.000 5.542 L2.000 5.539 L2.000 -3.500 L2.000 -3.512 L1.999 -3.525 L1.999 -3.537 L1.998 -3.549 L1.996 -3.561 L1.995 -3.573 L1.993 -3.585 L1.990 -3.598 L1.988 -3.610 L1.985 -3.621 L1.982 -3.633 L1.978 -3.645 L1.975 -3.657 L1.971 -3.668 L1.966 -3.680 L1.962 -3.691 L1.957 -3.703 L1.952 -3.714 L1.947 -3.725 L1.941 -3.736 L1.935 -3.746 L1.929 -3.757 L1.922 -3.767 L1.916 -3.778 L1.909 -3.788 L1.902 -3.798 L1.894 -3.808 L1.887 -3.817 L1.879 -3.827 L1.870 -3.836 L1.862 -3.845 L1.854 -3.854 L1.845 -3.862 L1.836 -3.870 L1.827 -3.879 L1.817 -3.887 L1.808 -3.894 L1.798 -3.902 L1.788 -3.909 L1.778 -3.916 L1.767 -3.922 L1.757 -3.929 L1.746 -3.935 L1.736 -3.941 L1.725 -3.947 L1.714 -3.952 L1.703 -3.957 L1.691 -3.962 L1.680 -3.966 L1.668 -3.971 L1.657 -3.975 L1.645 -3.978 L1.633 -3.982 L1.621 -3.985 L1.610 -3.988 L1.598 -3.990 L1.585 -3.993 L1.573 -3.995 L1.561 -3.996 L1.549 -3.998 L1.537 -3.999 L1.525 -3.999 L1.512 -4.000 L1.500 -4.000 L0.500 -4.000 L0.488 -4.000 L0.475 -3.999 L0.463 -3.999 L0.451 -3.998 L0.439 -3.996 L0.427 -3.995 L0.415 -3.993 L0.402 -3.990 L0.390 -3.988 L0.379 -3.985 L0.367 -3.982 L0.355 -3.978 L0.343 -3.975 L0.332 -3.971 L0.320 -3.966 L0.309 -3.962 L0.297 -3.957 L0.286 -3.952 L0.275 -3.947 L0.264 -3.941 L0.254 -3.935 L0.243 -3.929 L0.233 -3.922 L0.222 -3.916 L0.212 -3.909 L0.202 -3.902 L0.192 -3.894 L0.183 -3.887 L0.173 -3.879 L0.164 -3.870 L0.155 -3.862 L0.146 -3.854 L0.138 -3.845 L0.130 -3.836 L0.121 -3.827 L0.113 -3.817 L0.106 -3.808 L0.098 -3.798 L0.091 -3.788 L0.084 -3.778 L0.078 -3.767 L0.071 -3.757 L0.065 -3.746 L0.059 -3.736 L0.053 -3.725 L0.048 -3.714 L0.043 -3.703 L0.038 -3.691 L0.034 -3.680 L0.029 -3.668 L0.025 -3.657 L0.022 -3.645 L0.018 -3.633 L0.015 -3.621 L0.012 -3.610 L0.010 -3.598 L0.007 -3.585 L0.005 -3.573 L0.004 -3.561 L0.002 -3.549 L0.001 -3.537 L0.001 -3.525 L0.000 -3.512 L0.000 -3.500 Z" fill="none" stroke="#101010" stroke-width="0.06" stroke-dasharray="0.25 0.18" /><circle cx="7.9" cy="5.4" r="1.5" fill="none" stroke="#D00000" stroke-width="0.12" /></svg>
